<?xml version="1.0" encoding="UTF-8"?>
<svg version="1.1" xmlns="http://www.w3.org/2000/svg" width="58" height="100">
<path d="M0 0 C1.32 0.33 2.64 0.66 4 1 C4 2.32 4 3.64 4 5 C7.3 5 10.6 5 14 5 C14.33 3.35 14.66 1.7 15 0 C15.99 0 16.98 0 18 0 C18.103125 0.639375 18.20625 1.27875 18.3125 1.9375 C18.6528125 2.9584375 18.6528125 2.9584375 19 4 C19.99 4.33 20.98 4.66 22 5 C22.33 4.01 22.66 3.02 23 2 C24.98 2 26.96 2 29 2 C29 2.99 29 3.98 29 5 C30.32 5 31.64 5 33 5 C33.33 3.35 33.66 1.7 34 0 C34.99 0 35.98 0 37 0 C37.495 2.475 37.495 2.475 38 5 C41.3 5 44.6 5 48 5 C48 3.35 48 1.7 48 0 C49.32 0 50.64 0 52 0 C52 1.65 52 3.3 52 5 C52.99 5 53.98 5 55 5 C55 6.65 55 8.3 55 10 C51.04 10 47.08 10 43 10 C42.34 11.32 41.68 12.64 41 14 C47.93 14.495 47.93 14.495 55 15 C55 16.65 55 18.3 55 20 C53.68644531 20.00257812 52.37289062 20.00515625 51.01953125 20.0078125 C49.28382033 20.04534138 47.54814388 20.08448898 45.8125 20.125 C44.94818359 20.12242188 44.08386719 20.11984375 43.19335938 20.1171875 C42.35224609 20.14296875 41.51113281 20.16875 40.64453125 20.1953125 C39.87471924 20.20578613 39.10490723 20.21625977 38.31176758 20.22705078 C35.52031838 21.16038357 33.76798388 22.43029775 31.98310852 24.77981567 C29.65167906 30.04495482 30.40474287 36.15348025 30.51171875 41.8046875 C30.52105378 43.25341569 30.52816664 44.70215975 30.53315735 46.15090942 C30.5521735 49.94889534 30.60122535 53.74591269 30.65667725 57.54351807 C30.70798757 61.42471212 30.73069635 65.30606394 30.75585938 69.1875 C30.80935147 76.79210641 30.89459621 84.39591707 31 92 C32.27230469 92.14493896 33.54460938 92.28987793 34.85546875 92.43920898 C39.44249925 92.96175634 42.13801115 94.50579887 46 97 C46 97.99 46 98.98 46 100 C32.47 100 18.94 100 5 100 C7.27692308 95.44615385 7.27692308 95.44615385 10.75 93.75 C11.73226563 93.24726563 11.73226563 93.24726563 12.734375 92.734375 C15.55576812 91.81985447 18.05016075 91.95263326 21 92 C21.11612917 83.77642227 21.20483301 75.55319022 21.25906086 67.3289938 C21.28509493 63.50964216 21.32037716 59.69085372 21.37719727 55.87182617 C21.43174185 52.18242464 21.46146706 48.49356293 21.47438622 44.80378914 C21.48358624 43.39998952 21.50155215 41.99621766 21.52865028 40.59264946 C21.88831146 31.71222494 21.88831146 31.71222494 18.75976562 23.63867188 C15.54145231 20.55610902 15.54145231 20.55610902 11.35546875 20.09765625 C10.51435547 20.07509766 9.67324219 20.05253906 8.80664062 20.02929688 C7.94232422 20.04025391 7.07800781 20.05121094 6.1875 20.0625 C4.86202148 20.03833008 4.86202148 20.03833008 3.50976562 20.01367188 C1.34012422 19.9784885 -0.83012454 19.98509408 -3 20 C-3 18.35 -3 16.7 -3 15 C1.62 15 6.24 15 11 15 C8.53616064 10.81456127 8.53616064 10.81456127 5.30078125 10.390625 C3.82158203 10.32101562 3.82158203 10.32101562 2.3125 10.25 C1.31863281 10.19328125 0.32476562 10.1365625 -0.69921875 10.078125 C-1.83810547 10.03945313 -1.83810547 10.03945313 -3 10 C-3 8.35 -3 6.7 -3 5 C-2.34 5 -1.68 5 -1 5 C-0.67 3.35 -0.34 1.7 0 0 Z M13 10 C14.0645852 12.60943058 14.0645852 12.60943058 16 15 C19.12635209 15.41746608 19.12635209 15.41746608 22 15 C22 13.35 22 11.7 22 10 C19.03 10 16.06 10 13 10 Z M30 10 C30 11.65 30 13.3 30 15 C32.87364791 15.41746608 32.87364791 15.41746608 36 15 C37.9354148 12.60943058 37.9354148 12.60943058 39 10 C36.03 10 33.06 10 30 10 Z " fill="#0C0C0C" transform="translate(3,0)"/>
<path d="M0 0 C0.99 0 1.98 0 3 0 C3.33 1.65 3.66 3.3 4 5 C7.3 5 10.6 5 14 5 C14 3.35 14 1.7 14 0 C15.32 0 16.64 0 18 0 C18 1.65 18 3.3 18 5 C18.99 5 19.98 5 21 5 C21 6.65 21 8.3 21 10 C17.04 10 13.08 10 9 10 C8.34 11.32 7.68 12.64 7 14 C6.34 13.01 5.68 12.02 5 11 C2.80545319 10.42006301 2.80545319 10.42006301 0.375 10.3125 C-0.44226562 10.24675781 -1.25953125 10.18101563 -2.1015625 10.11328125 C-2.72804687 10.07589844 -3.35453125 10.03851563 -4 10 C-4 11.65 -4 13.3 -4 15 C-4.33 15 -4.66 15 -5 15 C-5 13.02 -5 11.04 -5 9 C0.445 8.505 0.445 8.505 6 8 C4.68 7.34 3.36 6.68 2 6 C1.67 5.67 1.34 5.34 1 5 C0.34 5 -0.32 5 -1 5 C-0.67 3.35 -0.34 1.7 0 0 Z " fill="#060606" transform="translate(37,0)"/>
<path d="M0 0 C-1.485 0.9590625 -1.485 0.9590625 -3 1.9375 C-4.485 2.9584375 -4.485 2.9584375 -6 4 C-6 4.33 -6 4.66 -6 5 C3.24 5 12.48 5 22 5 C22 4.01 22 3.02 22 2 C24.475 2.99 24.475 2.99 27 4 C27 4.99 27 5.98 27 7 C13.47 7 -0.06 7 -14 7 C-11.72284644 2.44569288 -11.72284644 2.44569288 -8.125 0.6875 C-7.44695313 0.34074219 -6.76890625 -0.00601563 -6.0703125 -0.36328125 C-3.64262754 -1.10990889 -2.36734455 -0.82273185 0 0 Z " fill="#3C3C3C" transform="translate(22,93)"/>
<path d="M0 0 C1.32 0 2.64 0 4 0 C4 1.65 4 3.3 4 5 C4.99 5 5.98 5 7 5 C7 6.65 7 8.3 7 10 C3.04 10 -0.92 10 -5 10 C-5.66 11.32 -6.32 12.64 -7 14 C-7.66 13.01 -8.32 12.02 -9 11 C-11.19454681 10.42006301 -11.19454681 10.42006301 -13.625 10.3125 C-14.44226562 10.24675781 -15.25953125 10.18101563 -16.1015625 10.11328125 C-16.72804687 10.07589844 -17.35453125 10.03851563 -18 10 C-18 11.65 -18 13.3 -18 15 C-18.33 15 -18.66 15 -19 15 C-19 13.02 -19 11.04 -19 9 C-10.75 9 -2.5 9 6 9 C6 8.01 6 7.02 6 6 C4.02 6 2.04 6 0 6 C0 4.02 0 2.04 0 0 Z " fill="#515151" transform="translate(51,0)"/>
<path d="M0 0 C1.98 0.495 1.98 0.495 4 1 C4 2.32 4 3.64 4 5 C7.3 5 10.6 5 14 5 C14.33 3.35 14.66 1.7 15 0 C15.99 0 16.98 0 18 0 C18.103125 0.639375 18.20625 1.27875 18.3125 1.9375 C18.6528125 2.9584375 18.6528125 2.9584375 19 4 C19.99 4.33 20.98 4.66 22 5 C22.33 4.34 22.66 3.68 23 3 C23 3.99 23 4.98 23 6 C19.37501666 6.02893932 15.75006287 6.04677792 12.125 6.0625 C10.57619141 6.07506836 10.57619141 6.07506836 8.99609375 6.08789062 C8.00996094 6.09111328 7.02382812 6.09433594 6.0078125 6.09765625 C4.64100342 6.10551147 4.64100342 6.10551147 3.24658203 6.11352539 C1 6 1 6 -1 5 C-0.67 3.35 -0.34 1.7 0 0 Z " fill="#242424" transform="translate(3,0)"/>
<path d="M0 0 C8.58 0 17.16 0 26 0 C26 1.98 26 3.96 26 6 C25.67 6 25.34 6 25 6 C25 4.35 25 2.7 25 1 C22.36 1.33 19.72 1.66 17 2 C17.66 3.32 18.32 4.64 19 6 C17.68 6.33 16.36 6.66 15 7 C14.566875 6.195625 14.13375 5.39125 13.6875 4.5625 C9.65542203 0.71796054 5.38865731 1.10219867 0 1 C0 0.67 0 0.34 0 0 Z " fill="#3B3B3B" transform="translate(0,9)"/>
<path d="M0 0 C0.33 0 0.66 0 1 0 C1 6.27 1 12.54 1 19 C0.67 19 0.34 19 0 19 C0 17.35 0 15.7 0 14 C-0.99 14 -1.98 14 -3 14 C-3 10.7 -3 7.4 -3 4 C-2.01 4 -1.02 4 0 4 C0 2.68 0 1.36 0 0 Z " fill="#1A1A1A" transform="translate(32,46)"/>
<path d="M0 0 C-0.99 0.61875 -1.98 1.2375 -3 1.875 C-3.99 2.57625 -4.98 3.2775 -6 4 C-6 4.66 -6 5.32 -6 6 C-8.31 6 -10.62 6 -13 6 C-12 3 -12 3 -10.29296875 1.796875 C-9.59816406 1.45140625 -8.90335938 1.1059375 -8.1875 0.75 C-7.50042969 0.39421875 -6.81335938 0.0384375 -6.10546875 -0.328125 C-3.64922558 -1.11193544 -2.39957614 -0.84119973 0 0 Z " fill="#262626" transform="translate(22,93)"/>
<path d="M0 0 C1.32 0 2.64 0 4 0 C4 1.65 4 3.3 4 5 C4.99 5 5.98 5 7 5 C6.67 6.32 6.34 7.64 6 9 C6 8.01 6 7.02 6 6 C4.02 6 2.04 6 0 6 C0 4.02 0 2.04 0 0 Z " fill="#373737" transform="translate(51,0)"/>
<path d="M0 0 C1.32 0 2.64 0 4 0 C4 0.66 4 1.32 4 2 C4.66 2.33 5.32 2.66 6 3 C4.35 4.65 2.7 6.3 1 8 C-0.35439668 5.29120665 -0.06501451 2.99066732 0 0 Z " fill="#3F3F3F" transform="translate(32,19)"/>
<path d="M0 0 C2.475 0.99 2.475 0.99 5 2 C5 2.99 5 3.98 5 5 C1.37 5 -2.26 5 -6 5 C-6 4.67 -6 4.34 -6 4 C-4.02 3.67 -2.04 3.34 0 3 C0 2.01 0 1.02 0 0 Z " fill="#323232" transform="translate(44,95)"/>
<path d="M0 0 C1.98 0.495 1.98 0.495 4 1 C3.67 2.65 3.34 4.3 3 6 C1.68 5.67 0.36 5.34 -1 5 C-0.67 3.35 -0.34 1.7 0 0 Z " fill="#3F3F3F" transform="translate(3,0)"/>
<path d="M0 0 C0.99 0 1.98 0 3 0 C3.33 1.98 3.66 3.96 4 6 C3.34 6 2.68 6 2 6 C1.67 5.67 1.34 5.34 1 5 C0.34 5 -0.32 5 -1 5 C-0.67 3.35 -0.34 1.7 0 0 Z " fill="#4C4C4C" transform="translate(37,0)"/>
<path d="M0 0 C0.99 0 1.98 0 3 0 C3.33 1.32 3.66 2.64 4 4 C2.35 4.33 0.7 4.66 -1 5 C-0.67 3.35 -0.34 1.7 0 0 Z " fill="#3C3C3C" transform="translate(18,0)"/>
<path d="M0 0 C0.99 0.33 1.98 0.66 3 1 C2.67 2.32 2.34 3.64 2 5 C0.35 5 -1.3 5 -3 5 C-2.01 3.35 -1.02 1.7 0 0 Z " fill="#212121" transform="translate(41,11)"/>
</svg>
