<?xml version="1.0" standalone="no"?>
<!DOCTYPE svg PUBLIC "-//W3C//DTD SVG 20010904//EN" "http://www.w3.org/TR/2001/REC-SVG-20010904/DTD/svg10.dtd">
<!-- Created using Karbon, part of Calligra: http://www.calligra.org/karbon -->
<svg xmlns="http://www.w3.org/2000/svg" xmlns:xlink="http://www.w3.org/1999/xlink" width="1125.36pt" height="595.277pt">
<defs/>
<g id="layer0">
  <g id="cluster_M.dulo. Base" transform="translate(1012.88, 890.679)" fill="none">
   <path id="shape0" transform="translate(-976.592, -741.565)" fill="#ffffff" stroke="#000000" stroke-width="1.00000000000" stroke-linecap="butt" stroke-linejoin="miter" stroke-miterlimit="2.00000000000" d="M2.49682 0L109.734 0C110.931 0.363175 111.868 1.3001 112.231 2.49736L119.222 22.2734L193.254 22.2734C194.633 22.2734 195.75 23.3916 195.75 24.7707L195.75 498.943C195.75 500.323 194.633 501.441 193.254 501.441L2.49682 501.441C1.11786 501.441 1.42109e-13 500.323 1.42109e-13 498.943L0 2.49736C1.42109e-13 1.11811 1.11786 1.42109e-13 2.49682 1.42109e-13"/>
   <path id="shape1" transform="translate(-976.592, -719.269)" fill="#000000" stroke="#000000" stroke-width="1.00000000000" stroke-linecap="butt" stroke-linejoin="miter" stroke-miterlimit="2.00000000000" d="M0 0L119.374 0"/>
   <text id="shape0" fill="#000000" font-family="Verdana" font-size="11.19999980927pt" font-weight="bold" x="0.00000000000pt" y="8.89064000000pt" transform="translate(-972.592, -737.684)"><tspan x="0"  y="11.1133">Módulo: Base</tspan></text>
  </g>
  <g id="cluster_M.dulo. silver_sales .Ventas." transform="translate(1237.88, 882.529)" fill="none">
   <path id="shape2" transform="translate(-976.592, -741.565)" fill="#ffffff" stroke="#000000" stroke-width="1.00000000000" stroke-linecap="butt" stroke-linejoin="miter" stroke-miterlimit="2.00000000000" d="M2.49495 0L234.756 0C235.952 0.363938 236.888 1.30283 237.251 2.50261L244.237 22.3201L244.006 22.3201C245.385 22.3201 246.501 23.4407 246.501 24.8228L246.501 141.548C246.501 142.93 245.385 144.05 244.006 144.05L2.49495 144.05C1.11703 144.05 0 142.93 0 141.548L0 2.50261C0 1.12046 1.11703 1.42109e-13 2.49495 1.42109e-13"/>
   <path id="shape3" transform="translate(-976.592, -719.269)" fill="#000000" stroke="#000000" stroke-width="1.00000000000" stroke-linecap="butt" stroke-linejoin="miter" stroke-miterlimit="2.00000000000" d="M0 0L244.731 0"/>
   <text id="shape01" fill="#000000" font-family="Verdana" font-size="11.19999980927pt" font-weight="bold" x="0.00000000000pt" y="8.89064000000pt" transform="translate(-972.592, -737.684)"><tspan x="0"  y="11.1133">Módulo: silver_sales (Ventas)</tspan></text>
  </g>
  <g id="cluster_M.dulo. silver_billing .Contabilidad." transform="translate(1975.88, 1087.02)" fill="none">
   <path id="shape4" transform="translate(-976.592, -741.565)" fill="#ffffff" stroke="#000000" stroke-width="1.00000000000" stroke-linecap="butt" stroke-linejoin="miter" stroke-miterlimit="2.00000000000" d="M2.49677 0L288.794 0C289.99 0.363594 290.928 1.3016 291.291 2.50024L298.282 22.299L384.004 22.299C385.383 22.299 386.501 23.4185 386.501 24.7992L386.501 311.31C386.501 312.691 385.383 313.81 384.004 313.81L2.49677 313.81C1.11784 313.81 2.84217e-13 312.691 2.84217e-13 311.31L0 2.50024C2.84217e-13 1.1194 1.11784 0 2.49677 0"/>
   <path id="shape5" transform="translate(-976.592, -719.269)" fill="#000000" stroke="#000000" stroke-width="1.00000000000" stroke-linecap="butt" stroke-linejoin="miter" stroke-miterlimit="2.00000000000" d="M0 0L298.667 0"/>
   <text id="shape02" fill="#000000" font-family="Verdana" font-size="11.19999980927pt" font-weight="bold" x="0.00000000000pt" y="8.89064000000pt" transform="translate(-972.592, -737.684)"><tspan x="0"  y="11.1133">Módulo: silver_billing (Contabilidad)</tspan></text>
  </g>
  <g id="cluster_M.dulo. silver_customerservice .Atenci.n al Cliente." transform="translate(1519.88, 890.679)" fill="none">
   <path id="shape6" transform="translate(-976.592, -741.565)" fill="#ffffff" stroke="#000000" stroke-width="1.00000000000" stroke-linecap="butt" stroke-linejoin="miter" stroke-miterlimit="2.00000000000" d="M2.49711 0L419.105 0C420.302 0.363724 421.239 1.30207 421.602 2.50114L428.594 22.307L429.003 22.307C430.383 22.307 431.501 23.4269 431.501 24.8082L431.501 305.279C431.501 306.661 430.383 307.78 429.003 307.78L2.49711 307.78C1.11799 307.78 0 306.661 0 305.279L0 2.50114C0 1.1198 1.11799 1.42109e-13 2.49711 1.42109e-13"/>
   <path id="shape7" transform="translate(-976.592, -719.269)" fill="#000000" stroke="#000000" stroke-width="1.00000000000" stroke-linecap="butt" stroke-linejoin="miter" stroke-miterlimit="2.00000000000" d="M0 0L429.09 0"/>
   <text id="shape03" fill="#000000" font-family="Verdana" font-size="11.19999980927pt" font-weight="bold" x="0.00000000000pt" y="8.89064000000pt" transform="translate(-972.592, -737.684)"><tspan x="0"  y="11.1133">Módulo: silver_customerservice (Atención al Cliente)</tspan></text>
  </g>
  <g id="cluster_M.dulo. silver_payment .Pagos." transform="translate(1975.88, 882.529)" fill="none">
   <path id="shape8" transform="translate(-976.592, -741.565)" fill="#ffffff" stroke="#000000" stroke-width="1.00000000000" stroke-linecap="butt" stroke-linejoin="miter" stroke-miterlimit="2.00000000000" d="M2.50427 0L257.512 0C258.713 0.363938 259.652 1.30283 260.016 2.50261L267.028 22.3201L290.997 22.3201C292.38 22.3201 293.501 23.4407 293.501 24.8228L293.501 141.548C293.501 142.93 292.38 144.05 290.997 144.05L2.50427 144.05C1.1212 144.05 2.84217e-13 142.93 2.84217e-13 141.548L0 2.50261C2.84217e-13 1.12046 1.1212 1.42109e-13 2.50427 1.42109e-13"/>
   <path id="shape9" transform="translate(-976.592, -719.269)" fill="#000000" stroke="#000000" stroke-width="1.00000000000" stroke-linecap="butt" stroke-linejoin="miter" stroke-miterlimit="2.00000000000" d="M0 0L266.573 0"/>
   <text id="shape04" fill="#000000" font-family="Verdana" font-size="11.19999980927pt" font-weight="bold" x="0.00000000000pt" y="8.89064000000pt" transform="translate(-972.592, -737.684)"><tspan x="0"  y="11.1133">Módulo: silver_payment (Pagos)</tspan></text>
  </g>
  <g id="entity_cliente" transform="translate(1036.61, 1283.76)" fill="none">
   <rect id="shape10" transform="translate(-976.592, -741.565)" fill="#ffffff" stroke="#000000" stroke-width="1.00000000000" stroke-linecap="butt" stroke-linejoin="miter" stroke-miterlimit="2.00000000000" width="118.82968000000pt" height="74.31248000000pt" rx="2.00000000000pt" ry="2.00000000000pt"/>
   <path id="shape11" transform="translate(-938.607, -736.565)" fill="#ffffff" stroke="#000000" stroke-width="1.00000000000" stroke-linecap="butt" stroke-linejoin="miter" stroke-miterlimit="2.00000000000" d="M18 9C18 4.02944 13.9706 3.04359e-16 9 0C4.02944 -3.04359e-16 6.08718e-16 4.02944 0 9C-6.08718e-16 13.9706 4.02944 18 9 18C13.9706 18 18 13.9706 18 9"/>
   <path id="shape12" transform="translate(-934.341, -734.19)" fill="#000000" d="M7.9117 12.6183C7.51586 12.8219 7.0986 12.9719 6.65989 13.0684C6.22127 13.1755 5.76124 13.2291 5.27981 13.2291C3.56801 13.2291 2.25742 12.6665 1.34804 11.5413C0.449347 10.4054 0 8.76583 0 6.62259C0 4.47935 0.449347 2.83977 1.34804 1.70382C2.25742 0.567939 3.56801 -2.84217e-13 5.27981 0C5.76124 -2.84217e-13 6.22127 0.0535636 6.65989 0.160691C7.10928 0.267887 7.52654 0.423297 7.9117 0.626921L7.9117 3.42379C7.48375 3.02731 7.06648 2.73798 6.65989 2.55583C6.25338 2.3629 5.83614 2.26644 5.40819 2.26644C4.48807 2.26644 3.79263 2.63614 3.32188 3.37554C2.85114 4.10424 2.61577 5.18659 2.61577 6.62259C2.61577 8.05852 2.85114 9.14622 3.32188 9.88569C3.79263 10.6144 4.48807 10.9787 5.40819 10.9787C5.83614 10.9787 6.25338 10.8876 6.65989 10.7054C7.06648 10.5125 7.48375 10.2179 7.9117 9.82139Z"/>
   <text id="shape05" fill="#000000" font-family="Verdana" font-size="11.19999980927pt" x="0.00000000000pt" y="8.35936000000pt" transform="translate(-912.107, -733.168)"><tspan x="0"  y="10.4492">cliente</tspan></text>
   <path id="shape13" transform="translate(-975.592, -713.565)" fill="#000000" stroke="#000000" stroke-width="1.00000000000" stroke-linecap="butt" stroke-linejoin="miter" stroke-miterlimit="2.00000000000" d="M0 0L146.538 0"/>
   <rect id="shape14" transform="translate(-968.592, -702.917)" fill="none" stroke="#000000" stroke-width="1.00000000000" stroke-linecap="butt" stroke-linejoin="miter" stroke-miterlimit="2.00000000000" width="4.80000000000pt" height="4.80000000000pt"/>
   <text id="shape06" fill="#000000" font-family="Verdana" font-size="11.19999980927pt" x="0.00000000000pt" y="8.35936000000pt" transform="translate(-958.592, -707.02)"><tspan x="0"  y="10.4492">res_parnter: class</tspan></text>
   <rect id="shape15" transform="translate(-968.592, -686.62)" fill="none" stroke="#000000" stroke-width="1.00000000000" stroke-linecap="butt" stroke-linejoin="miter" stroke-miterlimit="2.00000000000" width="4.80000000000pt" height="4.80000000000pt"/>
   <text id="shape07" fill="#000000" font-family="Verdana" font-size="11.19999980927pt" x="0.00000000000pt" y="8.35936000000pt" transform="translate(-958.592, -690.723)"><tspan x="0"  y="10.4492">nombre: string</tspan></text>
   <rect id="shape16" transform="translate(-968.592, -670.323)" fill="none" stroke="#000000" stroke-width="1.00000000000" stroke-linecap="butt" stroke-linejoin="miter" stroke-miterlimit="2.00000000000" width="4.80000000000pt" height="4.80000000000pt"/>
   <text id="shape08" fill="#000000" font-family="Verdana" font-size="11.19999980927pt" x="0.00000000000pt" y="8.35936000000pt" transform="translate(-958.592, -674.426)"><tspan x="0"  y="10.4492">type: selection</tspan></text>
   <path id="shape17" transform="translate(-975.592, -656.675)" fill="#000000" stroke="#000000" stroke-width="1.00000000000" stroke-linecap="butt" stroke-linejoin="miter" stroke-miterlimit="2.00000000000" d="M0 0L146.538 0"/>
  </g>
  <g id="entity_Contrato" transform="translate(1029.05, 1089.43)" fill="none">
   <rect id="shape18" transform="translate(-976.592, -741.565)" fill="#ffffff" stroke="#000000" stroke-width="1.00000000000" stroke-linecap="butt" stroke-linejoin="miter" stroke-miterlimit="2.00000000000" width="130.92112000000pt" height="87.35000000000pt" rx="2.00000000000pt" ry="2.00000000000pt"/>
   <path id="shape19" transform="translate(-938.063, -736.565)" fill="#ffffff" stroke="#000000" stroke-width="1.00000000000" stroke-linecap="butt" stroke-linejoin="miter" stroke-miterlimit="2.00000000000" d="M18 9C18 4.02944 13.9706 3.04359e-16 9 0C4.02944 -3.04359e-16 6.08718e-16 4.02944 0 9C-6.08718e-16 13.9706 4.02944 18 9 18C13.9706 18 18 13.9706 18 9"/>
   <path id="shape20" transform="translate(-933.798, -734.19)" fill="#000000" d="M7.9117 12.6183C7.51586 12.8219 7.09862 12.9719 6.66 13.0684C6.22137 13.1755 5.7613 13.2291 5.27981 13.2291C3.56801 13.2291 2.25742 12.6665 1.34804 11.5413C0.449347 10.4054 0 8.76583 0 6.62259C0 4.47935 0.449347 2.83977 1.34804 1.70382C2.25742 0.567939 3.56801 0 5.27981 0C5.7613 0 6.22137 0.0535636 6.66 0.160691C7.10931 0.267887 7.52654 0.423297 7.9117 0.626921L7.9117 3.42379C7.48375 3.02731 7.06652 2.73798 6.66 2.55583C6.25342 2.3629 5.83614 2.26644 5.40819 2.26644C4.48813 2.26644 3.79274 2.63614 3.32199 3.37554C2.85124 4.10424 2.61587 5.18659 2.61587 6.62259C2.61587 8.05852 2.85124 9.14622 3.32199 9.88569C3.79274 10.6144 4.48813 10.9787 5.40819 10.9787C5.83614 10.9787 6.25342 10.8876 6.66 10.7054C7.06652 10.5125 7.48375 10.2179 7.9117 9.82139Z"/>
   <text id="shape09" fill="#000000" font-family="Verdana" font-size="11.19999980927pt" x="0.00000000000pt" y="7.96875200000pt" transform="translate(-911.563, -732.68)"><tspan x="0"  y="9.96094">Contrato</tspan></text>
   <path id="shape21" transform="translate(-975.592, -713.565)" fill="#000000" stroke="#000000" stroke-width="1.00000000000" stroke-linecap="butt" stroke-linejoin="miter" stroke-miterlimit="2.00000000000" d="M0 0L161.651 0"/>
   <rect id="shape22" transform="translate(-968.592, -702.917)" fill="none" stroke="#000000" stroke-width="1.00000000000" stroke-linecap="butt" stroke-linejoin="miter" stroke-miterlimit="2.00000000000" width="4.80000000000pt" height="4.80000000000pt"/>
   <text id="shape010" fill="#000000" font-family="Verdana" font-size="11.19999980927pt" x="0.00000000000pt" y="8.35936000000pt" transform="translate(-958.592, -707.02)"><tspan x="0"  y="10.4492">nombre: string</tspan></text>
   <rect id="shape23" transform="translate(-968.592, -686.62)" fill="none" stroke="#000000" stroke-width="1.00000000000" stroke-linecap="butt" stroke-linejoin="miter" stroke-miterlimit="2.00000000000" width="4.80000000000pt" height="4.80000000000pt"/>
   <text id="shape011" fill="#000000" font-family="Verdana" font-size="11.19999980927pt" x="0.00000000000pt" y="8.35936000000pt" transform="translate(-958.592, -690.723)"><tspan x="0"  y="10.4492">cliente_id: int «FK»</tspan></text>
   <rect id="shape24" transform="translate(-968.592, -670.323)" fill="none" stroke="#000000" stroke-width="1.00000000000" stroke-linecap="butt" stroke-linejoin="miter" stroke-miterlimit="2.00000000000" width="4.80000000000pt" height="4.80000000000pt"/>
   <text id="shape012" fill="#000000" font-family="Verdana" font-size="11.19999980927pt" x="0.00000000000pt" y="8.35936000000pt" transform="translate(-958.592, -674.426)"><tspan x="0"  y="10.4492">olt_port_id: int «FK»</tspan></text>
   <rect id="shape25" transform="translate(-968.592, -654.026)" fill="none" stroke="#000000" stroke-width="1.00000000000" stroke-linecap="butt" stroke-linejoin="miter" stroke-miterlimit="2.00000000000" width="4.80000000000pt" height="4.80000000000pt"/>
   <text id="shape013" fill="#000000" font-family="Verdana" font-size="11.19999980927pt" x="0.00000000000pt" y="8.35936000000pt" transform="translate(-958.592, -658.129)"><tspan x="0"  y="10.4492">splitter_id: int «FK»</tspan></text>
   <path id="shape26" transform="translate(-975.592, -640.378)" fill="#000000" stroke="#000000" stroke-width="1.00000000000" stroke-linecap="butt" stroke-linejoin="miter" stroke-miterlimit="2.00000000000" d="M0 0L161.651 0"/>
  </g>
  <g id="entity_Servicio" transform="translate(1028.64, 925.679)" fill="none">
   <rect id="shape27" transform="translate(-976.592, -741.565)" fill="#ffffff" stroke="#000000" stroke-width="1.00000000000" stroke-linecap="butt" stroke-linejoin="miter" stroke-miterlimit="2.00000000000" width="126.78128000000pt" height="61.27504000000pt" rx="2.00000000000pt" ry="2.00000000000pt"/>
   <path id="shape28" transform="translate(-937.896, -736.565)" fill="#ffffff" stroke="#000000" stroke-width="1.00000000000" stroke-linecap="butt" stroke-linejoin="miter" stroke-miterlimit="2.00000000000" d="M18 9C18 4.02944 13.9706 3.04359e-16 9 0C4.02944 -3.04359e-16 6.08718e-16 4.02944 0 9C-6.08718e-16 13.9706 4.02944 18 9 18C13.9706 18 18 13.9706 18 9"/>
   <path id="shape29" transform="translate(-933.63, -734.19)" fill="#000000" d="M7.9117 12.6183C7.51586 12.8219 7.09862 12.9719 6.66 13.0684C6.22137 13.1755 5.7613 13.2291 5.27981 13.2291C3.56801 13.2291 2.25742 12.6665 1.34804 11.5413C0.449347 10.4054 0 8.76583 0 6.62259C0 4.47935 0.449347 2.83977 1.34804 1.70382C2.25742 0.567939 3.56801 0 5.27981 0C5.7613 0 6.22137 0.0535636 6.66 0.160691C7.10931 0.267887 7.52654 0.423297 7.9117 0.626921L7.9117 3.42379C7.48375 3.02731 7.06652 2.73798 6.66 2.55583C6.25342 2.3629 5.83614 2.26644 5.40819 2.26644C4.48813 2.26644 3.79274 2.63614 3.32199 3.37554C2.85124 4.10424 2.61587 5.18659 2.61587 6.62259C2.61587 8.05852 2.85124 9.14622 3.32199 9.88569C3.79274 10.6144 4.48813 10.9787 5.40819 10.9787C5.83614 10.9787 6.25342 10.8876 6.66 10.7054C7.06652 10.5125 7.48375 10.2179 7.9117 9.82139Z"/>
   <text id="shape014" fill="#000000" font-family="Verdana" font-size="11.19999980927pt" x="0.00000000000pt" y="8.10936000000pt" transform="translate(-911.396, -732.855)"><tspan x="0"  y="10.1367">Servicio</tspan></text>
   <path id="shape30" transform="translate(-975.592, -713.565)" fill="#000000" stroke="#000000" stroke-width="1.00000000000" stroke-linecap="butt" stroke-linejoin="miter" stroke-miterlimit="2.00000000000" d="M0 0L156.476 0"/>
   <rect id="shape31" transform="translate(-968.592, -702.917)" fill="none" stroke="#000000" stroke-width="1.00000000000" stroke-linecap="butt" stroke-linejoin="miter" stroke-miterlimit="2.00000000000" width="4.80000000000pt" height="4.80000000000pt"/>
   <text id="shape015" fill="#000000" font-family="Verdana" font-size="11.19999980927pt" x="0.00000000000pt" y="8.35936000000pt" transform="translate(-958.592, -707.02)"><tspan x="0"  y="10.4492">nombre: string</tspan></text>
   <rect id="shape32" transform="translate(-968.592, -686.62)" fill="none" stroke="#000000" stroke-width="1.00000000000" stroke-linecap="butt" stroke-linejoin="miter" stroke-miterlimit="2.00000000000" width="4.80000000000pt" height="4.80000000000pt"/>
   <text id="shape016" fill="#000000" font-family="Verdana" font-size="11.19999980927pt" x="0.00000000000pt" y="8.35936000000pt" transform="translate(-958.592, -690.723)"><tspan x="0"  y="10.4492">is_isp_service: bool</tspan></text>
   <path id="shape33" transform="translate(-975.592, -672.972)" fill="#000000" stroke="#000000" stroke-width="1.00000000000" stroke-linecap="butt" stroke-linejoin="miter" stroke-miterlimit="2.00000000000" d="M0 0L156.476 0"/>
  </g>
  <g id="entity_Orden" transform="translate(1265.6, 917.529)" fill="none">
   <rect id="shape34" transform="translate(-976.592, -741.565)" fill="#ffffff" stroke="#000000" stroke-width="1.00000000000" stroke-linecap="butt" stroke-linejoin="miter" stroke-miterlimit="2.00000000000" width="152.45160000000pt" height="74.31248000000pt" rx="2.00000000000pt" ry="2.00000000000pt"/>
   <path id="shape35" transform="translate(-915.634, -736.565)" fill="#ffffff" stroke="#000000" stroke-width="1.00000000000" stroke-linecap="butt" stroke-linejoin="miter" stroke-miterlimit="2.00000000000" d="M18 9C18 4.02944 13.9706 3.04359e-16 9 0C4.02944 -3.04359e-16 6.08718e-16 4.02944 0 9C-6.08718e-16 13.9706 4.02944 18 9 18C13.9706 18 18 13.9706 18 9"/>
   <path id="shape36" transform="translate(-911.369, -734.19)" fill="#000000" d="M7.91191 12.6183C7.516 12.8219 7.09872 12.9719 6.66008 13.0684C6.22145 13.1755 5.76142 13.2291 5.27998 13.2291C3.56816 13.2291 2.25751 12.6665 1.34806 11.5413C0.449353 10.4054 0 8.76583 0 6.62259C0 4.47935 0.449353 2.83977 1.34806 1.70382C2.25751 0.567939 3.56816 0 5.27998 0C5.76142 0 6.22145 0.0535636 6.66008 0.160691C7.10948 0.267887 7.52675 0.423297 7.91191 0.626921L7.91191 3.42379C7.48395 3.02731 7.06667 2.73798 6.66008 2.55583C6.25356 2.3629 5.83632 2.26644 5.40837 2.26644C4.48823 2.26644 3.79279 2.63614 3.32203 3.37554C2.85128 4.10424 2.6159 5.18659 2.6159 6.62259C2.6159 8.05852 2.85128 9.14622 3.32203 9.88569C3.79279 10.6144 4.48823 10.9787 5.40837 10.9787C5.83632 10.9787 6.25356 10.8876 6.66008 10.7054C7.06667 10.5125 7.48395 10.2179 7.91191 9.82139Z"/>
   <text id="shape017" fill="#000000" font-family="Verdana" font-size="11.19999980927pt" x="0.00000000000pt" y="8.35936000000pt" transform="translate(-889.134, -733.168)"><tspan x="0"  y="10.4492">Orden</tspan></text>
   <path id="shape37" transform="translate(-975.592, -713.565)" fill="#000000" stroke="#000000" stroke-width="1.00000000000" stroke-linecap="butt" stroke-linejoin="miter" stroke-miterlimit="2.00000000000" d="M0 0L188.565 0"/>
   <rect id="shape38" transform="translate(-968.592, -702.917)" fill="none" stroke="#000000" stroke-width="1.00000000000" stroke-linecap="butt" stroke-linejoin="miter" stroke-miterlimit="2.00000000000" width="4.80000000000pt" height="4.80000000000pt"/>
   <text id="shape018" fill="#000000" font-family="Verdana" font-size="11.19999980927pt" x="0.00000000000pt" y="8.35936000000pt" transform="translate(-958.592, -707.02)"><tspan x="0"  y="10.4492">cliente_id: int «FK»</tspan></text>
   <rect id="shape39" transform="translate(-968.592, -686.62)" fill="none" stroke="#000000" stroke-width="1.00000000000" stroke-linecap="butt" stroke-linejoin="miter" stroke-miterlimit="2.00000000000" width="4.80000000000pt" height="4.80000000000pt"/>
   <text id="shape019" fill="#000000" font-family="Verdana" font-size="11.19999980927pt" x="0.00000000000pt" y="8.35936000000pt" transform="translate(-958.592, -690.723)"><tspan x="0"  y="10.4492">state: selection</tspan></text>
   <path id="shape40" transform="translate(-975.592, -672.972)" fill="#000000" stroke="#000000" stroke-width="1.00000000000" stroke-linecap="butt" stroke-linejoin="miter" stroke-miterlimit="2.00000000000" d="M0 0L188.565 0"/>
   <path id="shape41" transform="translate(-968.592, -662.323)" fill="#ffffff" stroke="#000000" stroke-width="1.00000000000" stroke-linecap="butt" stroke-linejoin="miter" stroke-miterlimit="2.00000000000" d="M6 3C6 1.34315 4.65685 1.01453e-16 3 0C1.34315 -1.01453e-16 2.02906e-16 1.34315 0 3C-2.02906e-16 4.65685 1.34315 6 3 6C4.65685 6 6 4.65685 6 3"/>
   <text id="shape020" fill="#000000" font-family="Verdana" font-size="11.19999980927pt" x="0.00000000000pt" y="8.10936000000pt" transform="translate(-958.592, -666.113)"><tspan x="0"  y="10.1367">generate_isp_contract()</tspan></text>
  </g>
  <g id="entity_Factura" transform="translate(1991.8, 1275.61)" fill="none">
   <rect id="shape42" transform="translate(-976.592, -741.565)" fill="#ffffff" stroke="#000000" stroke-width="1.00000000000" stroke-linecap="butt" stroke-linejoin="miter" stroke-miterlimit="2.00000000000" width="134.52504000000pt" height="87.35000000000pt" rx="2.00000000000pt" ry="2.00000000000pt"/>
   <path id="shape43" transform="translate(-931.778, -736.565)" fill="#ffffff" stroke="#000000" stroke-width="1.00000000000" stroke-linecap="butt" stroke-linejoin="miter" stroke-miterlimit="2.00000000000" d="M18 9C18 4.02944 13.9706 3.04359e-16 9 0C4.02944 -3.04359e-16 6.08718e-16 4.02944 0 9C-6.08718e-16 13.9706 4.02944 18 9 18C13.9706 18 18 13.9706 18 9"/>
   <path id="shape44" transform="translate(-927.512, -734.19)" fill="#000000" d="M7.9117 12.6183C7.51586 12.8219 7.0986 12.9719 6.65989 13.0684C6.22127 13.1755 5.76124 13.2291 5.27981 13.2291C3.56801 13.2291 2.25742 12.6665 1.34804 11.5413C0.449348 10.4054 -2.84217e-13 8.76583 0 6.62259C-2.84217e-13 4.47935 0.449348 2.83977 1.34804 1.70382C2.25742 0.567939 3.56801 0 5.27981 0C5.76124 0 6.22127 0.0535636 6.65989 0.160691C7.10928 0.267887 7.52654 0.423297 7.9117 0.626921L7.9117 3.42379C7.48375 3.02731 7.06648 2.73798 6.65989 2.55583C6.25338 2.3629 5.83614 2.26644 5.40819 2.26644C4.48807 2.26644 3.79263 2.63614 3.32188 3.37554C2.85114 4.10424 2.61577 5.18659 2.61577 6.62259C2.61577 8.05852 2.85114 9.14622 3.32188 9.88569C3.79263 10.6144 4.48807 10.9787 5.40819 10.9787C5.83614 10.9787 6.25338 10.8876 6.65989 10.7054C7.06648 10.5125 7.48375 10.2179 7.9117 9.82139Z"/>
   <text id="shape021" fill="#000000" font-family="Verdana" font-size="11.19999980927pt" x="0.00000000000pt" y="7.85937600000pt" transform="translate(-905.278, -732.543)"><tspan x="0"  y="9.82422">Factura</tspan></text>
   <path id="shape45" transform="translate(-975.592, -713.565)" fill="#000000" stroke="#000000" stroke-width="1.00000000000" stroke-linecap="butt" stroke-linejoin="miter" stroke-miterlimit="2.00000000000" d="M0 0L166.156 0"/>
   <rect id="shape46" transform="translate(-968.592, -702.917)" fill="none" stroke="#000000" stroke-width="1.00000000000" stroke-linecap="butt" stroke-linejoin="miter" stroke-miterlimit="2.00000000000" width="4.80000000000pt" height="4.80000000000pt"/>
   <text id="shape022" fill="#000000" font-family="Verdana" font-size="11.19999980927pt" x="0.00000000000pt" y="8.35936000000pt" transform="translate(-958.592, -707.02)"><tspan x="0"  y="10.4492">contract_id: int «FK»</tspan></text>
   <rect id="shape47" transform="translate(-968.592, -686.62)" fill="none" stroke="#000000" stroke-width="1.00000000000" stroke-linecap="butt" stroke-linejoin="miter" stroke-miterlimit="2.00000000000" width="4.80000000000pt" height="4.80000000000pt"/>
   <text id="shape023" fill="#000000" font-family="Verdana" font-size="11.19999980927pt" x="0.00000000000pt" y="8.42184000000pt" transform="translate(-958.592, -690.801)"><tspan x="0"  y="10.5273">amount_total: float</tspan></text>
   <rect id="shape48" transform="translate(-968.592, -670.323)" fill="none" stroke="#000000" stroke-width="1.00000000000" stroke-linecap="butt" stroke-linejoin="miter" stroke-miterlimit="2.00000000000" width="4.80000000000pt" height="4.80000000000pt"/>
   <text id="shape024" fill="#000000" font-family="Verdana" font-size="11.19999980927pt" x="0.00000000000pt" y="8.35936000000pt" transform="translate(-958.592, -674.426)"><tspan x="0"  y="10.4492">contract_id: int «FK»</tspan></text>
   <rect id="shape49" transform="translate(-968.592, -654.026)" fill="none" stroke="#000000" stroke-width="1.00000000000" stroke-linecap="butt" stroke-linejoin="miter" stroke-miterlimit="2.00000000000" width="4.80000000000pt" height="4.80000000000pt"/>
   <text id="shape025" fill="#000000" font-family="Verdana" font-size="11.19999980927pt" x="0.00000000000pt" y="8.42184000000pt" transform="translate(-958.592, -658.207)"><tspan x="0"  y="10.5273">amount_total: float</tspan></text>
   <path id="shape50" transform="translate(-975.592, -640.378)" fill="#000000" stroke="#000000" stroke-width="1.00000000000" stroke-linecap="butt" stroke-linejoin="miter" stroke-miterlimit="2.00000000000" d="M0 0L166.156 0"/>
  </g>
  <g id="entity_Cuenta" transform="translate(2194.57, 1300.06)" fill="none">
   <rect id="shape51" transform="translate(-976.592, -741.565)" fill="#ffffff" stroke="#000000" stroke-width="1.00000000000" stroke-linecap="butt" stroke-linejoin="miter" stroke-miterlimit="2.00000000000" width="122.08904000000pt" height="48.23752000000pt" rx="2.00000000000pt" ry="2.00000000000pt"/>
   <path id="shape52" transform="translate(-938.138, -736.565)" fill="#ffffff" stroke="#000000" stroke-width="1.00000000000" stroke-linecap="butt" stroke-linejoin="miter" stroke-miterlimit="2.00000000000" d="M18 9C18 4.02944 13.9706 3.04359e-16 9 0C4.02944 -3.04359e-16 6.08718e-16 4.02944 0 9C-6.08718e-16 13.9706 4.02944 18 9 18C13.9706 18 18 13.9706 18 9"/>
   <path id="shape53" transform="translate(-933.873, -734.19)" fill="#000000" d="M7.91191 12.6183C7.516 12.8219 7.09872 12.9719 6.66008 13.0684C6.22145 13.1755 5.76142 13.2291 5.27998 13.2291C3.56816 13.2291 2.25751 12.6665 1.34806 11.5413C0.449353 10.4054 0 8.76583 0 6.62259C0 4.47935 0.449353 2.83977 1.34806 1.70382C2.25751 0.567939 3.56816 0 5.27998 0C5.76142 0 6.22145 0.0535636 6.66008 0.160691C7.10948 0.267887 7.52675 0.423297 7.91191 0.626921L7.91191 3.42379C7.48395 3.02731 7.06667 2.73798 6.66008 2.55583C6.25356 2.3629 5.83632 2.26644 5.40837 2.26644C4.48823 2.26644 3.79279 2.63614 3.32203 3.37554C2.85128 4.10424 2.6159 5.18659 2.6159 6.62259C2.6159 8.05852 2.85128 9.14622 3.32203 9.88569C3.79279 10.6144 4.48823 10.9787 5.40837 10.9787C5.83632 10.9787 6.25356 10.8876 6.66008 10.7054C7.06667 10.5125 7.48395 10.2179 7.91191 9.82139Z"/>
   <text id="shape026" fill="#000000" font-family="Verdana" font-size="11.19999980927pt" x="0.00000000000pt" y="7.96875200000pt" transform="translate(-911.638, -732.68)"><tspan x="0"  y="9.96094">Cuenta</tspan></text>
   <path id="shape54" transform="translate(-975.592, -713.565)" fill="#000000" stroke="#000000" stroke-width="1.00000000000" stroke-linecap="butt" stroke-linejoin="miter" stroke-miterlimit="2.00000000000" d="M0 0L150.611 0"/>
   <rect id="shape55" transform="translate(-968.592, -702.917)" fill="none" stroke="#000000" stroke-width="1.00000000000" stroke-linecap="butt" stroke-linejoin="miter" stroke-miterlimit="2.00000000000" width="4.80000000000pt" height="4.80000000000pt"/>
   <text id="shape027" fill="#000000" font-family="Verdana" font-size="11.19999980927pt" x="0.00000000000pt" y="8.35936000000pt" transform="translate(-958.592, -707.02)"><tspan x="0"  y="10.4492">banco_id: int «FK»</tspan></text>
   <path id="shape56" transform="translate(-975.592, -689.269)" fill="#000000" stroke="#000000" stroke-width="1.00000000000" stroke-linecap="butt" stroke-linejoin="miter" stroke-miterlimit="2.00000000000" d="M0 0L150.611 0"/>
  </g>
  <g id="entity_Transaccion" transform="translate(2147.7, 1122.02)" fill="none">
   <rect id="shape57" transform="translate(-976.592, -741.565)" fill="#ffffff" stroke="#000000" stroke-width="1.00000000000" stroke-linecap="butt" stroke-linejoin="miter" stroke-miterlimit="2.00000000000" width="89.88440000000pt" height="35.20000000000pt" rx="2.00000000000pt" ry="2.00000000000pt"/>
   <path id="shape58" transform="translate(-972.592, -736.565)" fill="#ffffff" stroke="#000000" stroke-width="1.00000000000" stroke-linecap="butt" stroke-linejoin="miter" stroke-miterlimit="2.00000000000" d="M18 9C18 4.02944 13.9706 3.04359e-16 9 0C4.02944 -3.04359e-16 6.08718e-16 4.02944 0 9C-6.08718e-16 13.9706 4.02944 18 9 18C13.9706 18 18 13.9706 18 9"/>
   <path id="shape59" transform="translate(-968.327, -734.19)" fill="#000000" d="M7.91191 12.6183C7.516 12.8219 7.09872 12.9719 6.66008 13.0684C6.22145 13.1755 5.76142 13.2291 5.27998 13.2291C3.56816 13.2291 2.25751 12.6665 1.34806 11.5413C0.449353 10.4054 -5.68434e-13 8.76583 0 6.62259C-5.68434e-13 4.47935 0.449353 2.83977 1.34806 1.70382C2.25751 0.567939 3.56816 0 5.27998 0C5.76142 0 6.22145 0.0535636 6.66008 0.160691C7.10948 0.267887 7.52675 0.423297 7.91191 0.626921L7.91191 3.42379C7.48395 3.02731 7.06667 2.73798 6.66008 2.55583C6.25356 2.3629 5.83632 2.26644 5.40837 2.26644C4.48823 2.26644 3.79279 2.63614 3.32203 3.37554C2.85128 4.10424 2.6159 5.18659 2.6159 6.62259C2.6159 8.05852 2.85128 9.14622 3.32203 9.88569C3.79279 10.6144 4.48823 10.9787 5.40837 10.9787C5.83632 10.9787 6.25356 10.8876 6.66008 10.7054C7.06667 10.5125 7.48395 10.2179 7.91191 9.82139Z"/>
   <text id="shape028" fill="#000000" font-family="Verdana" font-size="11.19999980927pt" x="0.00000000000pt" y="8.10936000000pt" transform="translate(-951.592, -732.855)"><tspan x="0"  y="10.1367">Transaccion</tspan></text>
   <path id="shape60" transform="translate(-975.592, -713.565)" fill="#000000" stroke="#000000" stroke-width="1.00000000000" stroke-linecap="butt" stroke-linejoin="miter" stroke-miterlimit="2.00000000000" d="M0 0L110.356 0"/>
   <path id="shape61" transform="translate(-975.592, -705.565)" fill="#000000" stroke="#000000" stroke-width="1.00000000000" stroke-linecap="butt" stroke-linejoin="miter" stroke-miterlimit="2.00000000000" d="M0 0L110.356 0"/>
  </g>
  <g id="entity_Incidencia" transform="translate(1538.9, 1105.72)" fill="none">
   <rect id="shape62" transform="translate(-976.592, -741.565)" fill="#ffffff" stroke="#000000" stroke-width="1.00000000000" stroke-linecap="butt" stroke-linejoin="miter" stroke-miterlimit="2.00000000000" width="129.57032000000pt" height="61.27504000000pt" rx="2.00000000000pt" ry="2.00000000000pt"/>
   <path id="shape63" transform="translate(-943.925, -736.565)" fill="#ffffff" stroke="#000000" stroke-width="1.00000000000" stroke-linecap="butt" stroke-linejoin="miter" stroke-miterlimit="2.00000000000" d="M18 9C18 4.02944 13.9706 3.04359e-16 9 0C4.02944 -3.04359e-16 6.08718e-16 4.02944 0 9C-6.08718e-16 13.9706 4.02944 18 9 18C13.9706 18 18 13.9706 18 9"/>
   <path id="shape64" transform="translate(-939.659, -734.19)" fill="#000000" d="M7.9117 12.6183C7.51586 12.8219 7.09862 12.9719 6.66 13.0684C6.22137 13.1755 5.7613 13.2291 5.27981 13.2291C3.56801 13.2291 2.25742 12.6665 1.34804 11.5413C0.449348 10.4054 0 8.76583 0 6.62259C0 4.47935 0.449348 2.83977 1.34804 1.70382C2.25742 0.567939 3.56801 0 5.27981 0C5.7613 0 6.22137 0.0535636 6.66 0.160691C7.10931 0.267887 7.52654 0.423297 7.9117 0.626921L7.9117 3.42379C7.48375 3.02731 7.06652 2.73798 6.66 2.55583C6.25342 2.3629 5.83614 2.26644 5.40819 2.26644C4.48813 2.26644 3.79274 2.63614 3.32199 3.37554C2.85124 4.10424 2.61587 5.18659 2.61587 6.62259C2.61587 8.05852 2.85124 9.14622 3.32199 9.88569C3.79274 10.6144 4.48813 10.9787 5.40819 10.9787C5.83614 10.9787 6.25342 10.8876 6.66 10.7054C7.06652 10.5125 7.48375 10.2179 7.9117 9.82139Z"/>
   <text id="shape029" fill="#000000" font-family="Verdana" font-size="11.19999980927pt" x="0.00000000000pt" y="8.35936000000pt" transform="translate(-917.425, -733.168)"><tspan x="0"  y="10.4492">Incidencia</tspan></text>
   <path id="shape65" transform="translate(-975.592, -713.565)" fill="#000000" stroke="#000000" stroke-width="1.00000000000" stroke-linecap="butt" stroke-linejoin="miter" stroke-miterlimit="2.00000000000" d="M0 0L159.963 0"/>
   <rect id="shape66" transform="translate(-968.592, -702.917)" fill="none" stroke="#000000" stroke-width="1.00000000000" stroke-linecap="butt" stroke-linejoin="miter" stroke-miterlimit="2.00000000000" width="4.80000000000pt" height="4.80000000000pt"/>
   <text id="shape030" fill="#000000" font-family="Verdana" font-size="11.19999980927pt" x="0.00000000000pt" y="8.35936000000pt" transform="translate(-958.592, -707.02)"><tspan x="0"  y="10.4492">nombre: string</tspan></text>
   <rect id="shape67" transform="translate(-968.592, -686.62)" fill="none" stroke="#000000" stroke-width="1.00000000000" stroke-linecap="butt" stroke-linejoin="miter" stroke-miterlimit="2.00000000000" width="4.80000000000pt" height="4.80000000000pt"/>
   <text id="shape031" fill="#000000" font-family="Verdana" font-size="11.19999980927pt" x="0.00000000000pt" y="8.35936000000pt" transform="translate(-958.592, -690.723)"><tspan x="0"  y="10.4492">partner_id: int «FK»</tspan></text>
   <path id="shape68" transform="translate(-975.592, -672.972)" fill="#000000" stroke="#000000" stroke-width="1.00000000000" stroke-linecap="butt" stroke-linejoin="miter" stroke-miterlimit="2.00000000000" d="M0 0L159.963 0"/>
  </g>
  <g id="entity_Ticket" transform="translate(1535.8, 925.679)" fill="none">
   <rect id="shape69" transform="translate(-976.592, -741.565)" fill="#ffffff" stroke="#000000" stroke-width="1.00000000000" stroke-linecap="butt" stroke-linejoin="miter" stroke-miterlimit="2.00000000000" width="134.52504000000pt" height="61.27504000000pt" rx="2.00000000000pt" ry="2.00000000000pt"/>
   <path id="shape70" transform="translate(-926.439, -736.565)" fill="#ffffff" stroke="#000000" stroke-width="1.00000000000" stroke-linecap="butt" stroke-linejoin="miter" stroke-miterlimit="2.00000000000" d="M18 9C18 4.02944 13.9706 3.04359e-16 9 0C4.02944 -3.04359e-16 6.08718e-16 4.02944 0 9C-6.08718e-16 13.9706 4.02944 18 9 18C13.9706 18 18 13.9706 18 9"/>
   <path id="shape71" transform="translate(-922.173, -734.19)" fill="#000000" d="M7.91191 12.6183C7.516 12.8219 7.09872 12.9719 6.66008 13.0684C6.22145 13.1755 5.76142 13.2291 5.27998 13.2291C3.56816 13.2291 2.25751 12.6665 1.34806 11.5413C0.449353 10.4054 0 8.76583 0 6.62259C0 4.47935 0.449353 2.83977 1.34806 1.70382C2.25751 0.567939 3.56816 0 5.27998 0C5.76142 0 6.22145 0.0535636 6.66008 0.160691C7.10948 0.267887 7.52675 0.423297 7.91191 0.626921L7.91191 3.42379C7.48395 3.02731 7.06667 2.73798 6.66008 2.55583C6.25356 2.3629 5.83632 2.26644 5.40837 2.26644C4.48823 2.26644 3.79279 2.63614 3.32203 3.37554C2.85128 4.10424 2.6159 5.18659 2.6159 6.62259C2.6159 8.05852 2.85128 9.14622 3.32203 9.88569C3.79279 10.6144 4.48823 10.9787 5.40837 10.9787C5.83632 10.9787 6.25356 10.8876 6.66008 10.7054C7.06667 10.5125 7.48395 10.2179 7.91191 9.82139Z"/>
   <text id="shape032" fill="#000000" font-family="Verdana" font-size="11.19999980927pt" x="0.00000000000pt" y="8.35936000000pt" transform="translate(-899.939, -733.168)"><tspan x="0"  y="10.4492">Ticket</tspan></text>
   <path id="shape72" transform="translate(-975.592, -713.565)" fill="#000000" stroke="#000000" stroke-width="1.00000000000" stroke-linecap="butt" stroke-linejoin="miter" stroke-miterlimit="2.00000000000" d="M0 0L166.156 0"/>
   <rect id="shape73" transform="translate(-968.592, -702.917)" fill="none" stroke="#000000" stroke-width="1.00000000000" stroke-linecap="butt" stroke-linejoin="miter" stroke-miterlimit="2.00000000000" width="4.80000000000pt" height="4.80000000000pt"/>
   <text id="shape033" fill="#000000" font-family="Verdana" font-size="11.19999980927pt" x="0.00000000000pt" y="8.35936000000pt" transform="translate(-958.592, -707.02)"><tspan x="0"  y="10.4492">nombre: string</tspan></text>
   <rect id="shape74" transform="translate(-968.592, -686.62)" fill="none" stroke="#000000" stroke-width="1.00000000000" stroke-linecap="butt" stroke-linejoin="miter" stroke-miterlimit="2.00000000000" width="4.80000000000pt" height="4.80000000000pt"/>
   <text id="shape034" fill="#000000" font-family="Verdana" font-size="11.19999980927pt" x="0.00000000000pt" y="8.35936000000pt" transform="translate(-958.592, -690.723)"><tspan x="0"  y="10.4492">contract_id: int «FK»</tspan></text>
   <path id="shape75" transform="translate(-975.592, -672.972)" fill="#000000" stroke="#000000" stroke-width="1.00000000000" stroke-linecap="butt" stroke-linejoin="miter" stroke-miterlimit="2.00000000000" d="M0 0L166.156 0"/>
  </g>
  <g id="entity_Banco" transform="translate(1992.04, 933.829)" fill="none">
   <rect id="shape76" transform="translate(-976.592, -741.565)" fill="#ffffff" stroke="#000000" stroke-width="1.00000000000" stroke-linecap="butt" stroke-linejoin="miter" stroke-miterlimit="2.00000000000" width="102.15000000000pt" height="48.23752000000pt" rx="2.00000000000pt" ry="2.00000000000pt"/>
   <path id="shape77" transform="translate(-947.158, -736.565)" fill="#ffffff" stroke="#000000" stroke-width="1.00000000000" stroke-linecap="butt" stroke-linejoin="miter" stroke-miterlimit="2.00000000000" d="M18 9C18 4.02944 13.9706 3.04359e-16 9 0C4.02944 -3.04359e-16 6.08718e-16 4.02944 0 9C-6.08718e-16 13.9706 4.02944 18 9 18C13.9706 18 18 13.9706 18 9"/>
   <path id="shape78" transform="translate(-942.893, -734.19)" fill="#000000" d="M7.9117 12.6183C7.51586 12.8219 7.09862 12.9719 6.66 13.0684C6.22137 13.1755 5.7613 13.2291 5.27981 13.2291C3.56801 13.2291 2.25742 12.6665 1.34804 11.5413C0.449348 10.4054 0 8.76583 0 6.62259C0 4.47935 0.449348 2.83977 1.34804 1.70382C2.25742 0.567939 3.56801 0 5.27981 0C5.7613 0 6.22137 0.0535636 6.66 0.160691C7.10931 0.267887 7.52654 0.423297 7.9117 0.626921L7.9117 3.42379C7.48375 3.02731 7.06652 2.73798 6.66 2.55583C6.25342 2.3629 5.83614 2.26644 5.40819 2.26644C4.48813 2.26644 3.79274 2.63614 3.32199 3.37554C2.85124 4.10424 2.61587 5.18659 2.61587 6.62259C2.61587 8.05852 2.85124 9.14622 3.32199 9.88569C3.79274 10.6144 4.48813 10.9787 5.40819 10.9787C5.83614 10.9787 6.25342 10.8876 6.66 10.7054C7.06652 10.5125 7.48375 10.2179 7.9117 9.82139Z"/>
   <text id="shape035" fill="#000000" font-family="Verdana" font-size="11.19999980927pt" x="0.00000000000pt" y="7.85937600000pt" transform="translate(-920.658, -732.543)"><tspan x="0"  y="9.82422">Banco</tspan></text>
   <path id="shape79" transform="translate(-975.592, -713.565)" fill="#000000" stroke="#000000" stroke-width="1.00000000000" stroke-linecap="butt" stroke-linejoin="miter" stroke-miterlimit="2.00000000000" d="M0 0L125.687 0"/>
   <rect id="shape80" transform="translate(-968.592, -702.917)" fill="none" stroke="#000000" stroke-width="1.00000000000" stroke-linecap="butt" stroke-linejoin="miter" stroke-miterlimit="2.00000000000" width="4.80000000000pt" height="4.80000000000pt"/>
   <text id="shape036" fill="#000000" font-family="Verdana" font-size="11.19999980927pt" x="0.00000000000pt" y="8.35936000000pt" transform="translate(-958.592, -707.02)"><tspan x="0"  y="10.4492">nombre: string</tspan></text>
   <path id="shape81" transform="translate(-975.592, -689.269)" fill="#000000" stroke="#000000" stroke-width="1.00000000000" stroke-linecap="butt" stroke-linejoin="miter" stroke-miterlimit="2.00000000000" d="M0 0L125.687 0"/>
  </g>
  <g id="entity_Pago" transform="translate(2155, 917.529)" fill="none">
   <rect id="shape82" transform="translate(-976.592, -741.565)" fill="#ffffff" stroke="#000000" stroke-width="1.00000000000" stroke-linecap="butt" stroke-linejoin="miter" stroke-miterlimit="2.00000000000" width="78.21328000000pt" height="74.31248000000pt" rx="2.00000000000pt" ry="2.00000000000pt"/>
   <path id="shape83" transform="translate(-956.711, -736.565)" fill="#ffffff" stroke="#000000" stroke-width="1.00000000000" stroke-linecap="butt" stroke-linejoin="miter" stroke-miterlimit="2.00000000000" d="M18 9C18 4.02944 13.9706 3.04359e-16 9 0C4.02944 -3.04359e-16 6.08718e-16 4.02944 0 9C-6.08718e-16 13.9706 4.02944 18 9 18C13.9706 18 18 13.9706 18 9"/>
   <path id="shape84" transform="translate(-952.445, -734.19)" fill="#000000" d="M7.9117 12.6183C7.51586 12.8219 7.0986 12.9719 6.65989 13.0684C6.22127 13.1755 5.76124 13.2291 5.27981 13.2291C3.56801 13.2291 2.25742 12.6665 1.34804 11.5413C0.449348 10.4054 0 8.76583 0 6.62259C0 4.47935 0.449348 2.83977 1.34804 1.70382C2.25742 0.567939 3.56801 0 5.27981 0C5.76124 0 6.22127 0.0535636 6.65989 0.160691C7.10928 0.267887 7.52654 0.423297 7.9117 0.626921L7.9117 3.42379C7.48375 3.02731 7.06648 2.73798 6.65989 2.55583C6.25338 2.3629 5.83614 2.26644 5.40819 2.26644C4.48807 2.26644 3.79263 2.63614 3.32188 3.37554C2.85114 4.10424 2.61577 5.18659 2.61577 6.62259C2.61577 8.05852 2.85114 9.14622 3.32188 9.88569C3.79263 10.6144 4.48807 10.9787 5.40819 10.9787C5.83614 10.9787 6.25338 10.8876 6.65989 10.7054C7.06648 10.5125 7.48375 10.2179 7.9117 9.82139Z"/>
   <text id="shape037" fill="#000000" font-family="Verdana" font-size="11.19999980927pt" x="0.00000000000pt" y="7.85937600000pt" transform="translate(-932.181, -732.543)"><tspan x="0"  y="9.82422">Pago</tspan></text>
   <path id="shape85" transform="translate(-975.592, -713.565)" fill="#000000" stroke="#000000" stroke-width="1.00000000000" stroke-linecap="butt" stroke-linejoin="miter" stroke-miterlimit="2.00000000000" d="M0 0L95.7666 0"/>
   <rect id="shape86" transform="translate(-968.592, -702.917)" fill="none" stroke="#000000" stroke-width="1.00000000000" stroke-linecap="butt" stroke-linejoin="miter" stroke-miterlimit="2.00000000000" width="4.80000000000pt" height="4.80000000000pt"/>
   <text id="shape038" fill="#000000" font-family="Verdana" font-size="11.19999980927pt" x="0.00000000000pt" y="8.35936000000pt" transform="translate(-958.592, -707.02)"><tspan x="0"  y="10.4492">cliente_id</tspan></text>
   <rect id="shape87" transform="translate(-968.592, -686.62)" fill="none" stroke="#000000" stroke-width="1.00000000000" stroke-linecap="butt" stroke-linejoin="miter" stroke-miterlimit="2.00000000000" width="4.80000000000pt" height="4.80000000000pt"/>
   <text id="shape039" fill="#000000" font-family="Verdana" font-size="11.19999980927pt" x="0.00000000000pt" y="8.35936000000pt" transform="translate(-958.592, -690.723)"><tspan x="0"  y="10.4492">servicio_id</tspan></text>
   <rect id="shape88" transform="translate(-968.592, -670.323)" fill="none" stroke="#000000" stroke-width="1.00000000000" stroke-linecap="butt" stroke-linejoin="miter" stroke-miterlimit="2.00000000000" width="4.80000000000pt" height="4.80000000000pt"/>
   <text id="shape040" fill="#000000" font-family="Verdana" font-size="11.19999980927pt" x="0.00000000000pt" y="8.35936000000pt" transform="translate(-958.592, -674.426)"><tspan x="0"  y="10.4492">banco_id</tspan></text>
   <path id="shape89" transform="translate(-975.592, -656.675)" fill="#000000" stroke="#000000" stroke-width="1.00000000000" stroke-linecap="butt" stroke-linejoin="miter" stroke-miterlimit="2.00000000000" d="M0 0L95.7666 0"/>
  </g>
  <g id="link_Core_Contrato" transform="translate(545.54, 960.088)" fill="none">
   <path id="Core-Contrato" transform="translate(-976.524, -732.264)" fill="none" stroke="#000000" stroke-width="1.00000000000" stroke-linecap="butt" stroke-linejoin="miter" stroke-miterlimit="2.00000000000" d="M0 0C63.4322 9.52069 212.892 34.3382 333.65 72.7396C384.728 88.9726 439.871 112.486 483.601 132.652"/>
   <path id="shape90" transform="translate(-596.935, -654.566)" fill="#000000" stroke="#000000" stroke-width="1.00000000000" stroke-linecap="butt" stroke-linejoin="miter" stroke-miterlimit="2.00000000000" d="M9.02671 4.74853L1.48452 0L0 5.13729Z"/>
   <text id="shape041" fill="#000000" font-family="Verdana" font-size="10.39999961853pt" x="0.00000000000pt" y="7.59375200000pt" transform="translate(-583.254, -655.649)"><tspan x="0"  y="9.49219">&quot;Conectado a&quot;</tspan></text>
   <text id="shape042" fill="#000000" font-family="Verdana" font-size="10.39999961853pt" x="0.00000000000pt" y="7.14062400000pt" transform="translate(-968.898, -744.565)"><tspan x="0"  y="8.92578">1</tspan></text>
   <text id="shape043" fill="#000000" font-family="Verdana" font-size="10.39999961853pt" x="0.00000000000pt" y="7.59375200000pt" transform="translate(-524.233, -615.536)"><tspan x="0"  y="9.49219">0..*</tspan></text>
  </g>
  <g id="link_Ap_Contrato" transform="translate(404.427, 986.125)" fill="none">
   <path id="Ap-Contrato" transform="translate(-974.791, -741.361)" fill="none" stroke="#000000" stroke-width="1.00000000000" stroke-linecap="butt" stroke-linejoin="miter" stroke-miterlimit="2.00000000000" d="M0 0C14.0575 16.5591 35.9237 38.2966 60.6393 48.2721C87.8645 59.2513 296.228 48.7438 324.593 56.3008C340.16 60.4355 341.53 67.6312 356.587 73.3616C444.751 106.871 550.653 130.134 622.28 143.522"/>
   <path id="shape91" transform="translate(-617.742, -680.465)" fill="#000000" stroke="#000000" stroke-width="1.00000000000" stroke-linecap="butt" stroke-linejoin="miter" stroke-miterlimit="2.00000000000" d="M8.97472 4.48196L1.247 0L0 5.2507Z"/>
   <text id="shape044" fill="#000000" font-family="Verdana" font-size="10.39999961853pt" x="0.00000000000pt" y="7.59375200000pt" transform="translate(-604.141, -681.686)"><tspan x="0"  y="9.49219">&quot;Conectado a&quot;</tspan></text>
   <text id="shape045" fill="#000000" font-family="Verdana" font-size="10.39999961853pt" x="0.00000000000pt" y="7.14062400000pt" transform="translate(-979.592, -730.554)"><tspan x="0"  y="8.92578">1</tspan></text>
   <text id="shape046" fill="#000000" font-family="Verdana" font-size="10.39999961853pt" x="0.00000000000pt" y="7.59375200000pt" transform="translate(-382.871, -596.343)"><tspan x="0"  y="9.49219">0..*</tspan></text>
  </g>
  <g id="link_Nap_Contrato" transform="translate(307.36, 986.203)" fill="none">
   <path id="Nap-Contrato" transform="translate(-972.534, -741.409)" fill="none" stroke="#000000" stroke-width="1.00000000000" stroke-linecap="butt" stroke-linejoin="miter" stroke-miterlimit="2.00000000000" d="M0 0C6.98 16.2595 19.09 37.5563 37.46 47.9504C59.13 60.1999 237.1 50.7435 261.46 55.9305C281.15 60.1201 284.08 67.4119 303.46 72.8882C446.3 113.208 618.16 136.749 717.5 148.011"/>
   <path id="shape92" transform="translate(-668.631, -680.47)" fill="#000000" stroke="#000000" stroke-width="1.00000000000" stroke-linecap="butt" stroke-linejoin="miter" stroke-miterlimit="2.00000000000" d="M8.93554 4.33754L1.12517 0L0 5.30105Z"/>
   <text id="shape047" fill="#000000" font-family="Verdana" font-size="10.39999961853pt" x="0.00000000000pt" y="7.59375200000pt" transform="translate(-655.074, -681.764)"><tspan x="0"  y="9.49219">&quot;Conectado a&quot;</tspan></text>
   <text id="shape048" fill="#000000" font-family="Verdana" font-size="10.39999961853pt" x="0.00000000000pt" y="7.14062400000pt" transform="translate(-979.592, -730.594)"><tspan x="0"  y="8.92578">1</tspan></text>
   <text id="shape049" fill="#000000" font-family="Verdana" font-size="10.39999961853pt" x="0.00000000000pt" y="7.59375200000pt" transform="translate(-286.064, -606.891)"><tspan x="0"  y="9.49219">0..*</tspan></text>
  </g>
  <g id="link_Transaccion_Cuenta" transform="translate(2207.66, 1166.37)" fill="none">
   <path id="Transaccion-Cuenta" transform="translate(-972.557, -741.425)" fill="none" stroke="#000000" stroke-width="1.00000000000" stroke-linecap="butt" stroke-linejoin="miter" stroke-miterlimit="2.00000000000" d="M0 0C11.9014 32.7847 34.6709 95.5267 48.1121 132.573"/>
   <path id="shape93" transform="translate(-944.522, -675.564)" fill="#000000" stroke="#000000" stroke-width="1.00000000000" stroke-linecap="butt" stroke-linejoin="miter" stroke-miterlimit="2.00000000000" d="M5.48215 9.03431L5.17337 0L0 1.90953Z"/>
   <text id="shape050" fill="#000000" font-family="Verdana" font-size="10.39999961853pt" x="0.00000000000pt" y="7.59375200000pt" transform="translate(-931.377, -675.75)"><tspan x="0"  y="9.49219">&quot;Involucra&quot;</tspan></text>
   <text id="shape051" fill="#000000" font-family="Verdana" font-size="10.39999961853pt" x="0.00000000000pt" y="7.14062400000pt" transform="translate(-979.592, -730.958)"><tspan x="0"  y="8.92578">1</tspan></text>
   <text id="shape052" fill="#000000" font-family="Verdana" font-size="10.39999961853pt" x="0.00000000000pt" y="7.59375200000pt" transform="translate(-951.712, -628.522)"><tspan x="0"  y="9.49219">0..*</tspan></text>
  </g>
  <g id="link_Transaccion_Factura" transform="translate(2096.55, 1166.31)" fill="none">
   <path id="Transaccion-Factura" transform="translate(-959.764, -741.369)" fill="none" stroke="#000000" stroke-width="1.00000000000" stroke-linecap="butt" stroke-linejoin="miter" stroke-miterlimit="2.00000000000" d="M76.1443 0C57.6045 26.4651 25.4419 72.3967 0 108.71"/>
   <path id="shape94" transform="translate(-928.117, -675.702)" fill="#000000" stroke="#000000" stroke-width="1.00000000000" stroke-linecap="butt" stroke-linejoin="miter" stroke-miterlimit="2.00000000000" d="M0 9.47357L7.65176 3.49055L2.77657 0Z"/>
   <text id="shape053" fill="#000000" font-family="Verdana" font-size="10.39999961853pt" x="0.00000000000pt" y="7.23437600000pt" transform="translate(-916.264, -675.245)"><tspan x="0"  y="9.04297">&quot;Genera&quot;</tspan></text>
   <text id="shape054" fill="#000000" font-family="Verdana" font-size="10.39999961853pt" x="0.00000000000pt" y="7.14062400000pt" transform="translate(-896.774, -730.902)"><tspan x="0"  y="8.92578">1</tspan></text>
   <text id="shape055" fill="#000000" font-family="Verdana" font-size="10.39999961853pt" x="0.00000000000pt" y="7.59375200000pt" transform="translate(-979.592, -652.669)"><tspan x="0"  y="9.49219">0..*</tspan></text>
  </g>
  <g id="link_Contrato_cliente" transform="translate(1105.31, 1198.79)" fill="none">
   <path id="Contrato-cliente" transform="translate(-971.025, -741.565)" fill="none" stroke="#000000" stroke-width="1.00000000000" stroke-linecap="butt" stroke-linejoin="miter" stroke-miterlimit="2.00000000000" d="M0 0C0 26.86 0 59.02 0 84.68"/>
   <path id="shape95" transform="translate(-968.964, -707.224)" fill="#000000" stroke="#000000" stroke-width="1.00000000000" stroke-linecap="butt" stroke-linejoin="miter" stroke-miterlimit="2.00000000000" d="M2.76388 9.35015L5.52777 0L0 0Z"/>
   <text id="shape056" fill="#000000" font-family="Verdana" font-size="10.39999961853pt" x="0.00000000000pt" y="7.35937600000pt" transform="translate(-957.025, -707.878)"><tspan x="0"  y="9.19922">Tiene Contrato</tspan></text>
   <text id="shape057" fill="#000000" font-family="Verdana" font-size="10.39999961853pt" x="0.00000000000pt" y="7.14062400000pt" transform="translate(-979.52, -730.438)"><tspan x="0"  y="8.92578">1</tspan></text>
   <text id="shape058" fill="#000000" font-family="Verdana" font-size="10.39999961853pt" x="0.00000000000pt" y="7.14062400000pt" transform="translate(-979.592, -676.7)"><tspan x="0"  y="8.92578">1</tspan></text>
  </g>
  <g id="link_Contrato_Radius" transform="translate(485.908, 1129.67)" fill="none">
   <path id="Contrato-Radius" transform="translate(-976.592, -727.213)" fill="none" stroke="#000000" stroke-width="1.00000000000" stroke-linecap="butt" stroke-linejoin="miter" stroke-miterlimit="2.00000000000" d="M542.9 0C398.56 0 104.62 0 0 0"/>
   <path id="shape96" transform="translate(-736.222, -741.586)" fill="#000000" stroke="#000000" stroke-width="1.00000000000" stroke-linecap="butt" stroke-linejoin="miter" stroke-miterlimit="2.00000000000" d="M0 2.76388L9.35015 5.52777L9.35015 0Z"/>
   <text id="shape059" fill="#000000" font-family="Verdana" font-size="10.39999961853pt" x="0.00000000000pt" y="7.59375200000pt" transform="translate(-722.222, -743.639)"><tspan x="0"  y="9.49219">Guarda</tspan></text>
   <text id="shape060" fill="#000000" font-family="Verdana" font-size="10.39999961853pt" x="0.00000000000pt" y="7.14062400000pt" transform="translate(-449.614, -723.375)"><tspan x="0"  y="8.92578">1</tspan></text>
   <text id="shape061" fill="#000000" font-family="Verdana" font-size="10.39999961853pt" x="0.00000000000pt" y="7.25000000000pt" transform="translate(-968.869, -740.347)"><tspan x="0"  y="9.0625">0..1</tspan></text>
  </g>
  <g id="link_Orden_cliente" transform="translate(1185.36, 1010.26)" fill="none">
   <path id="Orden-cliente" transform="translate(-976.407, -741.375)" fill="none" stroke="#000000" stroke-width="1.00000000000" stroke-linecap="butt" stroke-linejoin="miter" stroke-miterlimit="2.00000000000" d="M219.978 0C229.652 15.2167 235.204 32.507 228.411 49.0661C184.976 154.952 74.8466 235.183 0 279.731"/>
   <path id="shape97" transform="translate(-757.17, -612.735)" fill="#000000" stroke="#000000" stroke-width="1.00000000000" stroke-linecap="butt" stroke-linejoin="miter" stroke-miterlimit="2.00000000000" d="M0 9.10248L8.33187 3.70912L3.4646 0Z"/>
   <text id="shape062" fill="#000000" font-family="Verdana" font-size="10.39999961853pt" x="0.00000000000pt" y="7.59375200000pt" transform="translate(-745.077, -612.731)"><tspan x="0"  y="9.49219">&quot;Cliente&quot;</tspan></text>
   <text id="shape063" fill="#000000" font-family="Verdana" font-size="10.39999961853pt" x="0.00000000000pt" y="7.14062400000pt" transform="translate(-758.529, -730.297)"><tspan x="0"  y="8.92578">1</tspan></text>
   <text id="shape064" fill="#000000" font-family="Verdana" font-size="10.39999961853pt" x="0.00000000000pt" y="7.14062400000pt" transform="translate(-968.896, -478.564)"><tspan x="0"  y="8.92578">1</tspan></text>
  </g>
  <g id="link_Orden_Contrato" transform="translate(1154.29, 1010.64)" fill="none">
   <path id="Orden-Contrato" transform="translate(-961.591, -741.38)" fill="none" stroke="#000000" stroke-width="1.00000000000" stroke-linecap="butt" stroke-linejoin="miter" stroke-miterlimit="2.00000000000" d="M107.44 0C90.8946 9.83474 73.9194 20.5545 58.5736 31.4234C38.7192 45.4745 18.2049 62.1806 0 77.8725"/>
   <path id="shape98" transform="translate(-902.042, -705.971)" fill="#000000" stroke="#000000" stroke-width="1.00000000000" stroke-linecap="butt" stroke-linejoin="miter" stroke-miterlimit="2.00000000000" d="M0 7.90924L9.34168 4.87828L5.76506 0Z"/>
   <text id="shape065" fill="#000000" font-family="Verdana" font-size="10.39999961853pt" x="0.00000000000pt" y="7.23437600000pt" transform="translate(-889.001, -705.756)"><tspan x="0"  y="9.04297">&quot;Crea&quot;</tspan></text>
   <text id="shape066" fill="#000000" font-family="Verdana" font-size="10.39999961853pt" x="0.00000000000pt" y="7.14062400000pt" transform="translate(-874.494, -730.586)"><tspan x="0"  y="8.92578">1</tspan></text>
   <text id="shape067" fill="#000000" font-family="Verdana" font-size="10.39999961853pt" x="0.00000000000pt" y="7.25000000000pt" transform="translate(-979.592, -683.05)"><tspan x="0"  y="9.0625">0..1</tspan></text>
  </g>
  <g id="link_Ticket_Contrato" transform="translate(1192.92, 1002.49)" fill="none">
   <path id="Ticket-Contrato" transform="translate(-976.48, -741.399)" fill="none" stroke="#000000" stroke-width="1.00000000000" stroke-linecap="butt" stroke-linejoin="miter" stroke-miterlimit="2.00000000000" d="M351.7 0C328.557 11.0245 302.756 22.5917 278.534 31.9278C184.81 68.0062 73.8361 100.055 0 119.933"/>
   <path id="shape99" transform="translate(-726.365, -697.145)" fill="#000000" stroke="#000000" stroke-width="1.00000000000" stroke-linecap="butt" stroke-linejoin="miter" stroke-miterlimit="2.00000000000" d="M0 5.17453L9.04363 5.06525L7.24932 0Z"/>
   <text id="shape068" fill="#000000" font-family="Verdana" font-size="10.39999961853pt" x="0.00000000000pt" y="7.64062400000pt" transform="translate(-712.63, -698.113)"><tspan x="0"  y="9.55078">&quot;Refiere a&quot;</tspan></text>
   <text id="shape069" fill="#000000" font-family="Verdana" font-size="10.39999961853pt" x="0.00000000000pt" y="7.14062400000pt" transform="translate(-645.4, -730.598)"><tspan x="0"  y="8.92578">1</tspan></text>
   <text id="shape070" fill="#000000" font-family="Verdana" font-size="10.39999961853pt" x="0.00000000000pt" y="7.25000000000pt" transform="translate(-968.945, -636.402)"><tspan x="0"  y="9.0625">0..1</tspan></text>
  </g>
  <g id="link_Contrato_Factura" transform="translate(1193.01, 1155.64)" fill="none">
   <path id="Contrato-Factura" transform="translate(-976.494, -733.144)" fill="none" stroke="#000000" stroke-width="1.00000000000" stroke-linecap="butt" stroke-linejoin="miter" stroke-miterlimit="2.00000000000" d="M0 0C55.2033 12.5509 129.644 29.0489 195.64 42.2293C411.897 85.3879 667.927 129.286 797.69 151.03"/>
   <path id="shape100" transform="translate(-592.245, -663.668)" fill="#000000" stroke="#000000" stroke-width="1.00000000000" stroke-linecap="butt" stroke-linejoin="miter" stroke-miterlimit="2.00000000000" d="M8.89985 4.2232L1.0316 0L0 5.33647Z"/>
   <text id="shape071" fill="#000000" font-family="Verdana" font-size="10.39999961853pt" x="0.00000000000pt" y="7.23437600000pt" transform="translate(-578.724, -664.57)"><tspan x="0"  y="9.04297">Genera</tspan></text>
   <text id="shape072" fill="#000000" font-family="Verdana" font-size="10.39999961853pt" x="0.00000000000pt" y="7.59375200000pt" transform="translate(-969.023, -744.565)"><tspan x="0"  y="9.49219">0..*</tspan></text>
   <text id="shape073" fill="#000000" font-family="Verdana" font-size="10.39999961853pt" x="0.00000000000pt" y="7.59375200000pt" transform="translate(-208.926, -596.218)"><tspan x="0"  y="9.49219">0..*</tspan></text>
  </g>
  <g id="link_Servicio_Contrato" transform="translate(1048.74, 1002.16)" fill="none">
   <path id="Servicio-Contrato" transform="translate(-964.113, -741.377)" fill="none" stroke="#000000" stroke-width="1.00000000000" stroke-linecap="butt" stroke-linejoin="miter" stroke-miterlimit="2.00000000000" d="M14.9687 0C4.36975 16.9742 -3.58193 37.6066 1.65259 57.3646C4.3198 67.4345 8.51541 77.5547 13.3304 87.1121"/>
   <path id="shape101" transform="translate(-960.32, -696.83)" fill="#000000" stroke="#000000" stroke-width="1.00000000000" stroke-linecap="butt" stroke-linejoin="miter" stroke-miterlimit="2.00000000000" d="M2.60206 9.46213L5.52588 0.115637L0 0Z"/>
   <text id="shape074" fill="#000000" font-family="Verdana" font-size="10.39999961853pt" x="0.00000000000pt" y="7.64062400000pt" transform="translate(-948.458, -697.78)"><tspan x="0"  y="9.55078">&quot;Define Servicio&quot;</tspan></text>
   <text id="shape075" fill="#000000" font-family="Verdana" font-size="10.39999961853pt" x="0.00000000000pt" y="7.14062400000pt" transform="translate(-963.236, -730.34)"><tspan x="0"  y="8.92578">1</tspan></text>
   <text id="shape076" fill="#000000" font-family="Verdana" font-size="10.39999961853pt" x="0.00000000000pt" y="7.59375200000pt" transform="translate(-979.592, -674.73)"><tspan x="0"  y="9.49219">0..*</tspan></text>
  </g>
  <g id="link_Pago_Contrato" transform="translate(1192.81, 1010.52)" fill="none">
   <path id="Pago-Contrato" transform="translate(-976.483, -741.358)" fill="none" stroke="#000000" stroke-width="1.00000000000" stroke-linecap="butt" stroke-linejoin="miter" stroke-miterlimit="2.00000000000" d="M976.55 0C967.109 9.39571 956.127 18.094 944.105 23.6138C792.832 93.0105 360.835 44.4478 195.99 68.0417C129.31 77.5868 55.0085 94.9833 0 109.201"/>
   <path id="shape102" transform="translate(-63.492, -704.464)" fill="#000000" stroke="#000000" stroke-width="1.00000000000" stroke-linecap="butt" stroke-linejoin="miter" stroke-miterlimit="2.00000000000" d="M0 3.67242L9.91968 5.45895L9.22152 0Z"/>
   <text id="shape077" fill="#000000" font-family="Verdana" font-size="10.39999961853pt" x="0.00000000000pt" y="7.14062400000pt" transform="translate(-49.5232, -705.517)"><tspan x="0"  y="8.92578">&quot;Paga&quot;</tspan></text>
   <text id="shape078" fill="#000000" font-family="Verdana" font-size="10.39999961853pt" x="0.00000000000pt" y="7.14062400000pt" transform="translate(-13.4871, -730.578)"><tspan x="0"  y="8.92578">1</tspan></text>
   <text id="shape079" fill="#000000" font-family="Verdana" font-size="10.39999961853pt" x="0.00000000000pt" y="7.59375200000pt" transform="translate(-968.735, -630.519)"><tspan x="0"  y="9.49219">0..*</tspan></text>
  </g>
  <g id="link_Pago_Transaccion" transform="translate(2180.94, 1010.83)" fill="none">
   <path id="Pago-Transaccion" transform="translate(-953.651, -741.565)" fill="none" stroke="#000000" stroke-width="1.00000000000" stroke-linecap="butt" stroke-linejoin="miter" stroke-miterlimit="2.00000000000" d="M0 0C0 35.65 0 83.48 0 110.75"/>
   <path id="shape103" transform="translate(-951.59, -705.444)" fill="#000000" stroke="#000000" stroke-width="1.00000000000" stroke-linecap="butt" stroke-linejoin="miter" stroke-miterlimit="2.00000000000" d="M2.76388 9.35015L5.52777 0L0 0Z"/>
   <text id="shape080" fill="#000000" font-family="Verdana" font-size="10.39999961853pt" x="0.00000000000pt" y="7.17187200000pt" transform="translate(-939.651, -705.863)"><tspan x="0"  y="8.96484">&quot;Anota&quot;</tspan></text>
   <text id="shape081" fill="#000000" font-family="Verdana" font-size="10.39999961853pt" x="0.00000000000pt" y="7.14062400000pt" transform="translate(-962.195, -730.771)"><tspan x="0"  y="8.92578">1</tspan></text>
   <text id="shape082" fill="#000000" font-family="Verdana" font-size="10.39999961853pt" x="0.00000000000pt" y="7.59375200000pt" transform="translate(-979.592, -650.896)"><tspan x="0"  y="9.49219">0..*</tspan></text>
  </g>
  <g id="link_Ticket_Incidencia" transform="translate(1597.98, 1002.74)" fill="none">
   <path id="Ticket-Incidencia" transform="translate(-954.69, -741.565)" fill="none" stroke="#000000" stroke-width="1.00000000000" stroke-linecap="butt" stroke-linejoin="miter" stroke-miterlimit="2.00000000000" d="M0 0C0 30.21 0 72.38 0 102.58"/>
   <path id="shape104" transform="translate(-952.629, -697.354)" fill="#000000" stroke="#000000" stroke-width="1.00000000000" stroke-linecap="butt" stroke-linejoin="miter" stroke-miterlimit="2.00000000000" d="M2.76388 9.35015L5.52777 0L0 0Z"/>
   <text id="shape083" fill="#000000" font-family="Verdana" font-size="10.39999961853pt" x="0.00000000000pt" y="7.35937600000pt" transform="translate(-940.69, -698.008)"><tspan x="0"  y="9.19922">&quot;Maneja&quot;</tspan></text>
   <text id="shape084" fill="#000000" font-family="Verdana" font-size="10.39999961853pt" x="0.00000000000pt" y="7.14062400000pt" transform="translate(-963.33, -730.751)"><tspan x="0"  y="8.92578">1</tspan></text>
   <text id="shape085" fill="#000000" font-family="Verdana" font-size="10.39999961853pt" x="0.00000000000pt" y="7.59375200000pt" transform="translate(-979.592, -659.051)"><tspan x="0"  y="9.49219">0..*</tspan></text>
  </g>
 </g>
</svg>
