<?xml version="1.0" standalone="no"?>
<!DOCTYPE svg PUBLIC "-//W3C//DTD SVG 20010904//EN" "http://www.w3.org/TR/2001/REC-SVG-20010904/DTD/svg10.dtd">
<!-- Created using Karbon, part of Calligra: http://www.calligra.org/karbon -->
<svg xmlns="http://www.w3.org/2000/svg" xmlns:xlink="http://www.w3.org/1999/xlink" width="623.623pt" height="1153.7pt">
<defs/>
<g id="layer0">
  <g id="cluster_M.dulo. silver_isp .Infraestructura de Red." transform="translate(8, 54.6094)" fill="none">
   <path id="shape0" transform="translate(3, 3)" fill="#ffffff" stroke="#000000" stroke-width="1.00000000000" stroke-linecap="butt" stroke-linejoin="miter" stroke-miterlimit="2.00000000000" d="M2.49787 0L342.797 0C343.994 0.363694 344.931 1.30196 345.295 2.50093L352.289 22.3052L584.003 22.3052C585.383 22.3052 586.5 23.4249 586.5 24.8061L586.5 1344.75C586.5 1346.12 585.383 1347.25 584.003 1347.25L2.49787 1347.25C1.11834 1347.25 0 1346.12 0 1344.75L0 2.50093C0 1.1197 1.11834 8.88178e-15 2.49787 8.88178e-15"/>
   <path id="shape1" transform="translate(3, 25.2969)" fill="#000000" stroke="#000000" stroke-width="1.00000000000" stroke-linecap="butt" stroke-linejoin="miter" stroke-miterlimit="2.00000000000" d="M0 0L352.589 0"/>
   <text id="shape0" fill="#000000" font-family="Verdana" font-size="11.19999980927pt" font-weight="bold" x="0.00000000000pt" y="8.89064000000pt" transform="translate(7, 6.88182)"><tspan x="0"  y="11.1133">Módulo: silver_isp (Infraestructura de Red)</tspan></text>
  </g>
  <g id="entity_Zona" transform="translate(177.16, 89.6094)" fill="none">
   <rect id="shape2" transform="translate(3, 3)" fill="#ffffff" stroke="#000000" stroke-width="1.00000000000" stroke-linecap="butt" stroke-linejoin="miter" stroke-miterlimit="2.00000000000" width="102.15000000000pt" height="61.27504000000pt" rx="2.00000000000pt" ry="2.00000000000pt"/>
   <path id="shape3" transform="translate(36.2896, 8)" fill="#ffffff" stroke="#000000" stroke-width="1.00000000000" stroke-linecap="butt" stroke-linejoin="miter" stroke-miterlimit="2.00000000000" d="M18 9C18 4.02944 13.9706 3.04359e-16 9 0C4.02944 -3.04359e-16 6.08718e-16 4.02944 0 9C-6.08718e-16 13.9706 4.02944 18 9 18C13.9706 18 18 13.9706 18 9"/>
   <path id="shape4" transform="translate(40.5552, 10.375)" fill="#000000" d="M7.9117 12.6183C7.51586 12.8219 7.09862 12.9719 6.66 13.0684C6.22129 13.1755 5.76124 13.2291 5.27981 13.2291C3.56801 13.2291 2.25742 12.6665 1.34804 11.5413C0.449347 10.4054 0 8.76583 0 6.62259C0 4.47935 0.449347 2.83977 1.34804 1.70382C2.25742 0.567939 3.56801 0 5.27981 0C5.76124 0 6.22129 0.0535636 6.66 0.160691C7.10931 0.267887 7.52654 0.423297 7.9117 0.626921L7.9117 3.42379C7.48375 3.02731 7.06652 2.73798 6.66 2.55583C6.25342 2.3629 5.83614 2.26644 5.40819 2.26644C4.48813 2.26644 3.79274 2.63614 3.32199 3.37554C2.85124 4.10424 2.61587 5.18659 2.61587 6.62259C2.61587 8.05852 2.85124 9.14622 3.32199 9.88569C3.79274 10.6144 4.48813 10.9787 5.40819 10.9787C5.83614 10.9787 6.25342 10.8876 6.66 10.7054C7.06652 10.5125 7.48375 10.2179 7.9117 9.82139Z"/>
   <text id="shape01" fill="#000000" font-family="Verdana" font-size="11.19999980927pt" x="0.00000000000pt" y="7.85937600000pt" transform="translate(62.7896, 12.0225)"><tspan x="0"  y="9.82422">Zona</tspan></text>
   <path id="shape5" transform="translate(4, 31)" fill="#000000" stroke="#000000" stroke-width="1.00000000000" stroke-linecap="butt" stroke-linejoin="miter" stroke-miterlimit="2.00000000000" d="M0 0L125.688 0"/>
   <rect id="shape6" transform="translate(11, 41.6484)" fill="none" stroke="#000000" stroke-width="1.00000000000" stroke-linecap="butt" stroke-linejoin="miter" stroke-miterlimit="2.00000000000" width="4.80000000000pt" height="4.80000000000pt"/>
   <text id="shape02" fill="#000000" font-family="Verdana" font-size="11.19999980927pt" x="0.00000000000pt" y="8.35936000000pt" transform="translate(21, 37.5459)"><tspan x="0"  y="10.4492">nombre: string</tspan></text>
   <rect id="shape7" transform="translate(11, 57.9453)" fill="none" stroke="#000000" stroke-width="1.00000000000" stroke-linecap="butt" stroke-linejoin="miter" stroke-miterlimit="2.00000000000" width="4.80000000000pt" height="4.80000000000pt"/>
   <text id="shape03" fill="#000000" font-family="Verdana" font-size="11.19999980927pt" x="0.00000000000pt" y="8.35936000000pt" transform="translate(21, 53.8428)"><tspan x="0"  y="10.4492">code: string</tspan></text>
   <path id="shape8" transform="translate(4, 71.5937)" fill="#000000" stroke="#000000" stroke-width="1.00000000000" stroke-linecap="butt" stroke-linejoin="miter" stroke-miterlimit="2.00000000000" d="M0 0L125.688 0"/>
  </g>
  <g id="entity_Nodo" transform="translate(86.75, 243.199)" fill="none">
   <rect id="shape9" transform="translate(3, 3)" fill="#ffffff" stroke="#000000" stroke-width="1.00000000000" stroke-linecap="butt" stroke-linejoin="miter" stroke-miterlimit="2.00000000000" width="51.59216000000pt" height="35.20000000000pt" rx="2.00000000000pt" ry="2.00000000000pt"/>
   <path id="shape10" transform="translate(7, 8)" fill="#ffffff" stroke="#000000" stroke-width="1.00000000000" stroke-linecap="butt" stroke-linejoin="miter" stroke-miterlimit="2.00000000000" d="M18 9C18 4.02944 13.9706 3.04359e-16 9 0C4.02944 -3.04359e-16 6.08718e-16 4.02944 0 9C-6.08718e-16 13.9706 4.02944 18 9 18C13.9706 18 18 13.9706 18 9"/>
   <path id="shape11" transform="translate(11.2656, 10.375)" fill="#000000" d="M7.91191 12.6182C7.516 12.8218 7.09872 12.9718 6.66008 13.0683C6.22145 13.1754 5.76142 13.2289 5.27998 13.2289C3.56816 13.2289 2.25751 12.6663 1.34806 11.5412C0.449353 10.4053 0 8.76576 0 6.62254C0 4.47932 0.449353 2.83974 1.34806 1.70381C2.25751 0.567935 3.56816 0 5.27998 0C5.76142 0 6.22145 0.0535632 6.66008 0.16069C7.10948 0.267885 7.52675 0.42326 7.91191 0.626814L7.91191 3.42376C7.48395 3.02728 7.06667 2.73794 6.66008 2.55571C6.25356 2.36286 5.83632 2.26643 5.40837 2.26643C4.48823 2.26643 3.79279 2.63612 3.32203 3.37551C2.85128 4.10421 2.6159 5.18655 2.6159 6.62254C2.6159 8.05846 2.85128 9.14611 3.32203 9.88551C3.79279 10.6142 4.48823 10.9786 5.40837 10.9786C5.83632 10.9786 6.25356 10.8875 6.66008 10.7053C7.06667 10.5125 7.48395 10.2178 7.91191 9.82121Z"/>
   <text id="shape04" fill="#000000" font-family="Verdana" font-size="11.19999980927pt" x="0.00000000000pt" y="8.35936000000pt" transform="translate(28, 11.3975)"><tspan x="0"  y="10.4492">Nodo</tspan></text>
   <path id="shape12" transform="translate(4, 31)" fill="#000000" stroke="#000000" stroke-width="1.00000000000" stroke-linecap="butt" stroke-linejoin="miter" stroke-miterlimit="2.00000000000" d="M0 0L62.4902 0"/>
   <path id="shape13" transform="translate(4, 39)" fill="#000000" stroke="#000000" stroke-width="1.00000000000" stroke-linecap="butt" stroke-linejoin="miter" stroke-miterlimit="2.00000000000" d="M0 0L62.4902 0"/>
  </g>
  <g id="entity_Asset" transform="translate(112.76, 1098.13)" fill="none">
   <rect id="shape14" transform="translate(3, 3)" fill="#ffffff" stroke="#000000" stroke-width="1.00000000000" stroke-linecap="butt" stroke-linejoin="miter" stroke-miterlimit="2.00000000000" width="120.38832000000pt" height="74.31248000000pt" rx="2.00000000000pt" ry="2.00000000000pt"/>
   <path id="shape15" transform="translate(46.3589, 8)" fill="#ffffff" stroke="#000000" stroke-width="1.00000000000" stroke-linecap="butt" stroke-linejoin="miter" stroke-miterlimit="2.00000000000" d="M18 9C18 4.02944 13.9706 3.04359e-16 9 0C4.02944 -3.04359e-16 6.08718e-16 4.02944 0 9C-6.08718e-16 13.9706 4.02944 18 9 18C13.9706 18 18 13.9706 18 9"/>
   <path id="shape16" transform="translate(50.6245, 10.375)" fill="#000000" d="M7.9117 12.6183C7.51586 12.8219 7.09862 12.9719 6.66 13.0684C6.22137 13.1755 5.7613 13.2291 5.27981 13.2291C3.56801 13.2291 2.25742 12.6665 1.34804 11.5413C0.449347 10.4054 0 8.76583 0 6.62259C0 4.47935 0.449347 2.83977 1.34804 1.70382C2.25742 0.567939 3.56801 0 5.27981 0C5.7613 0 6.22137 0.0535636 6.66 0.160691C7.10931 0.267887 7.52654 0.423297 7.9117 0.626921L7.9117 3.42379C7.48375 3.02731 7.06652 2.73798 6.66 2.55583C6.25342 2.3629 5.83614 2.26644 5.40819 2.26644C4.48813 2.26644 3.79274 2.63614 3.32199 3.37554C2.85124 4.10424 2.61587 5.18659 2.61587 6.62259C2.61587 8.05852 2.85124 9.14622 3.32199 9.88569C3.79274 10.6144 4.48813 10.9787 5.40819 10.9787C5.83614 10.9787 6.25342 10.8876 6.66 10.7054C7.06652 10.5125 7.48375 10.2179 7.9117 9.82139Z"/>
   <text id="shape05" fill="#000000" font-family="Verdana" font-size="11.19999980927pt" x="0.00000000000pt" y="7.89062400000pt" transform="translate(72.8589, 11.9834)"><tspan x="0"  y="9.86328">Asset</tspan></text>
   <path id="shape17" transform="translate(4, 31)" fill="#000000" stroke="#000000" stroke-width="1.00000000000" stroke-linecap="butt" stroke-linejoin="miter" stroke-miterlimit="2.00000000000" d="M0 0L148.485 0"/>
   <rect id="shape18" transform="translate(11, 41.6484)" fill="none" stroke="#000000" stroke-width="1.00000000000" stroke-linecap="butt" stroke-linejoin="miter" stroke-miterlimit="2.00000000000" width="4.80000000000pt" height="4.80000000000pt"/>
   <text id="shape06" fill="#000000" font-family="Verdana" font-size="11.19999980927pt" x="0.00000000000pt" y="8.35936000000pt" transform="translate(21, 37.5459)"><tspan x="0"  y="10.4492">nombre: string,</tspan></text>
   <rect id="shape19" transform="translate(11, 57.9453)" fill="none" stroke="#000000" stroke-width="1.00000000000" stroke-linecap="butt" stroke-linejoin="miter" stroke-miterlimit="2.00000000000" width="4.80000000000pt" height="4.80000000000pt"/>
   <text id="shape07" fill="#000000" font-family="Verdana" font-size="11.19999980927pt" x="0.00000000000pt" y="8.35936000000pt" transform="translate(21, 53.8428)"><tspan x="0"  y="10.4492">location: geopoint</tspan></text>
   <rect id="shape20" transform="translate(11, 74.2422)" fill="none" stroke="#000000" stroke-width="1.00000000000" stroke-linecap="butt" stroke-linejoin="miter" stroke-miterlimit="2.00000000000" width="4.80000000000pt" height="4.80000000000pt"/>
   <text id="shape08" fill="#000000" font-family="Verdana" font-size="11.19999980927pt" x="0.00000000000pt" y="8.35936000000pt" transform="translate(21, 70.1396)"><tspan x="0"  y="10.4492">zone_id: int «FK»</tspan></text>
   <path id="shape21" transform="translate(4, 87.8906)" fill="#000000" stroke="#000000" stroke-width="1.00000000000" stroke-linecap="butt" stroke-linejoin="miter" stroke-miterlimit="2.00000000000" d="M0 0L148.485 0"/>
  </g>
  <g id="entity_Dispositivo" transform="translate(413.24, 1276.17)" fill="none">
   <rect id="shape22" transform="translate(3, 3)" fill="#ffffff" stroke="#000000" stroke-width="1.00000000000" stroke-linecap="butt" stroke-linejoin="miter" stroke-miterlimit="2.00000000000" width="100.41096000000pt" height="87.35000000000pt" rx="2.00000000000pt" ry="2.00000000000pt"/>
   <path id="shape23" transform="translate(16.3081, 8)" fill="#ffffff" stroke="#000000" stroke-width="1.00000000000" stroke-linecap="butt" stroke-linejoin="miter" stroke-miterlimit="2.00000000000" d="M18 9C18 4.02944 13.9706 3.04359e-16 9 0C4.02944 -3.04359e-16 6.08718e-16 4.02944 0 9C-6.08718e-16 13.9706 4.02944 18 9 18C13.9706 18 18 13.9706 18 9"/>
   <path id="shape24" transform="translate(20.5737, 10.375)" fill="#000000" d="M7.9117 12.6183C7.51586 12.8219 7.09862 12.9719 6.66 13.0684C6.22129 13.1755 5.76124 13.2291 5.27981 13.2291C3.56801 13.2291 2.25742 12.6665 1.34804 11.5413C0.449348 10.4054 0 8.76583 0 6.62259C0 4.47935 0.449348 2.83977 1.34804 1.70382C2.25742 0.567939 3.56801 0 5.27981 0C5.76124 0 6.22129 0.0535636 6.66 0.160691C7.10931 0.267887 7.52654 0.423297 7.9117 0.626921L7.9117 3.42379C7.48375 3.02731 7.06652 2.73798 6.66 2.55583C6.25342 2.3629 5.83614 2.26644 5.40819 2.26644C4.48813 2.26644 3.79274 2.63614 3.32199 3.37554C2.85124 4.10424 2.61587 5.18659 2.61587 6.62259C2.61587 8.05852 2.85124 9.14622 3.32199 9.88569C3.79274 10.6144 4.48813 10.9787 5.40819 10.9787C5.83614 10.9787 6.25342 10.8876 6.66 10.7054C7.06652 10.5125 7.48375 10.2179 7.9117 9.82139Z"/>
   <text id="shape09" fill="#000000" font-family="Verdana" font-size="11.19999980927pt" x="0.00000000000pt" y="8.10936000000pt" transform="translate(39.3765, 11.71)"><tspan x="0"  y="10.1367">Dispositivo</tspan></text>
   <path id="shape25" transform="translate(4, 31)" fill="#000000" stroke="#000000" stroke-width="1.00000000000" stroke-linecap="butt" stroke-linejoin="miter" stroke-miterlimit="2.00000000000" d="M0 0L123.514 0"/>
   <rect id="shape26" transform="translate(11, 41.6484)" fill="none" stroke="#000000" stroke-width="1.00000000000" stroke-linecap="butt" stroke-linejoin="miter" stroke-miterlimit="2.00000000000" width="4.80000000000pt" height="4.80000000000pt"/>
   <text id="shape010" fill="#000000" font-family="Verdana" font-size="11.19999980927pt" x="0.00000000000pt" y="8.10936000000pt" transform="translate(21, 37.8584)"><tspan x="0"  y="10.1367">ip: string</tspan></text>
   <rect id="shape27" transform="translate(11, 57.9453)" fill="none" stroke="#000000" stroke-width="1.00000000000" stroke-linecap="butt" stroke-linejoin="miter" stroke-miterlimit="2.00000000000" width="4.80000000000pt" height="4.80000000000pt"/>
   <text id="shape011" fill="#000000" font-family="Verdana" font-size="11.19999980927pt" x="0.00000000000pt" y="8.35936000000pt" transform="translate(21, 53.8428)"><tspan x="0"  y="10.4492">modelo: string</tspan></text>
   <rect id="shape28" transform="translate(11, 74.2422)" fill="none" stroke="#000000" stroke-width="1.00000000000" stroke-linecap="butt" stroke-linejoin="miter" stroke-miterlimit="2.00000000000" width="4.80000000000pt" height="4.80000000000pt"/>
   <text id="shape012" fill="#000000" font-family="Verdana" font-size="11.19999980927pt" x="0.00000000000pt" y="8.10936000000pt" transform="translate(21, 70.4521)"><tspan x="0"  y="10.1367">marca: string</tspan></text>
   <rect id="shape29" transform="translate(11, 90.539)" fill="none" stroke="#000000" stroke-width="1.00000000000" stroke-linecap="butt" stroke-linejoin="miter" stroke-miterlimit="2.00000000000" width="4.80000000000pt" height="4.80000000000pt"/>
   <text id="shape013" fill="#000000" font-family="Verdana" font-size="11.19999980927pt" x="0.00000000000pt" y="8.35936000000pt" transform="translate(21, 86.4365)"><tspan x="0"  y="10.4492">serial: string</tspan></text>
   <path id="shape30" transform="translate(4, 104.187)" fill="#000000" stroke="#000000" stroke-width="1.00000000000" stroke-linecap="butt" stroke-linejoin="miter" stroke-miterlimit="2.00000000000" d="M0 0L123.514 0"/>
  </g>
  <g id="entity_Core" transform="translate(481.65, 942.539)" fill="none">
   <rect id="shape31" transform="translate(3, 3)" fill="#ffffff" stroke="#000000" stroke-width="1.00000000000" stroke-linecap="butt" stroke-linejoin="miter" stroke-miterlimit="2.00000000000" width="48.56800000000pt" height="35.20000000000pt" rx="2.00000000000pt" ry="2.00000000000pt"/>
   <path id="shape32" transform="translate(7, 8)" fill="#ffffff" stroke="#000000" stroke-width="1.00000000000" stroke-linecap="butt" stroke-linejoin="miter" stroke-miterlimit="2.00000000000" d="M18 9C18 4.02944 13.9706 3.04359e-16 9 0C4.02944 -3.04359e-16 6.08718e-16 4.02944 0 9C-6.08718e-16 13.9706 4.02944 18 9 18C13.9706 18 18 13.9706 18 9"/>
   <path id="shape33" transform="translate(11.2656, 10.375)" fill="#000000" d="M7.91191 12.6183C7.516 12.8219 7.09872 12.9719 6.66008 13.0684C6.22145 13.1755 5.76142 13.2291 5.27998 13.2291C3.56816 13.2291 2.25751 12.6665 1.34806 11.5413C0.449353 10.4054 -7.10543e-14 8.76583 0 6.62259C-7.10543e-14 4.47935 0.449353 2.83977 1.34806 1.70382C2.25751 0.567939 3.56816 -1.42109e-13 5.27998 0C5.76142 -1.42109e-13 6.22145 0.0535636 6.66008 0.160691C7.10948 0.267887 7.52675 0.423297 7.91191 0.626921L7.91191 3.42379C7.48395 3.02731 7.06667 2.73798 6.66008 2.55583C6.25356 2.3629 5.83632 2.26644 5.40837 2.26644C4.48823 2.26644 3.79279 2.63614 3.32203 3.37554C2.85128 4.10424 2.6159 5.18659 2.6159 6.62259C2.6159 8.05852 2.85128 9.14622 3.32203 9.88569C3.79279 10.6144 4.48823 10.9787 5.40837 10.9787C5.83632 10.9787 6.25356 10.8876 6.66008 10.7054C7.06667 10.5125 7.48395 10.2179 7.91191 9.82139Z"/>
   <text id="shape014" fill="#000000" font-family="Verdana" font-size="11.19999980927pt" x="0.00000000000pt" y="7.96875200000pt" transform="translate(28, 11.8858)"><tspan x="0"  y="9.96094">Core</tspan></text>
   <path id="shape34" transform="translate(4, 31)" fill="#000000" stroke="#000000" stroke-width="1.00000000000" stroke-linecap="butt" stroke-linejoin="miter" stroke-miterlimit="2.00000000000" d="M0 0L58.71 0"/>
   <path id="shape35" transform="translate(4, 39)" fill="#000000" stroke="#000000" stroke-width="1.00000000000" stroke-linecap="butt" stroke-linejoin="miter" stroke-miterlimit="2.00000000000" d="M0 0L58.71 0"/>
  </g>
  <g id="entity_Poste" transform="translate(97.8, 942.539)" fill="none">
   <rect id="shape36" transform="translate(3, 3)" fill="#ffffff" stroke="#000000" stroke-width="1.00000000000" stroke-linecap="butt" stroke-linejoin="miter" stroke-miterlimit="2.00000000000" width="53.12344000000pt" height="35.20000000000pt" rx="2.00000000000pt" ry="2.00000000000pt"/>
   <path id="shape37" transform="translate(7, 8)" fill="#ffffff" stroke="#000000" stroke-width="1.00000000000" stroke-linecap="butt" stroke-linejoin="miter" stroke-miterlimit="2.00000000000" d="M18 9C18 4.02944 13.9706 3.04359e-16 9 0C4.02944 -3.04359e-16 6.08718e-16 4.02944 0 9C-6.08718e-16 13.9706 4.02944 18 9 18C13.9706 18 18 13.9706 18 9"/>
   <path id="shape38" transform="translate(11.2656, 10.375)" fill="#000000" d="M7.91191 12.6183C7.516 12.8219 7.09872 12.9719 6.66008 13.0684C6.22145 13.1755 5.76142 13.2291 5.27998 13.2291C3.56816 13.2291 2.25751 12.6665 1.34806 11.5413C0.449353 10.4054 -1.77636e-14 8.76583 0 6.62259C-1.77636e-14 4.47935 0.449353 2.83977 1.34806 1.70382C2.25751 0.567939 3.56816 -1.42109e-13 5.27998 0C5.76142 -1.42109e-13 6.22145 0.0535636 6.66008 0.160691C7.10948 0.267887 7.52675 0.423297 7.91191 0.626921L7.91191 3.42379C7.48395 3.02731 7.06667 2.73798 6.66008 2.55583C6.25356 2.3629 5.83632 2.26644 5.40837 2.26644C4.48823 2.26644 3.79279 2.63614 3.32203 3.37554C2.85128 4.10424 2.6159 5.18659 2.6159 6.62259C2.6159 8.05852 2.85128 9.14622 3.32203 9.88569C3.79279 10.6144 4.48823 10.9787 5.40837 10.9787C5.83632 10.9787 6.25356 10.8876 6.66008 10.7054C7.06667 10.5125 7.48395 10.2179 7.91191 9.82139Z"/>
   <text id="shape015" fill="#000000" font-family="Verdana" font-size="11.19999980927pt" x="0.00000000000pt" y="7.85937600000pt" transform="translate(28, 12.0225)"><tspan x="0"  y="9.82422">Poste</tspan></text>
   <path id="shape39" transform="translate(4, 31)" fill="#000000" stroke="#000000" stroke-width="1.00000000000" stroke-linecap="butt" stroke-linejoin="miter" stroke-miterlimit="2.00000000000" d="M0 0L64.4043 0"/>
   <path id="shape40" transform="translate(4, 39)" fill="#000000" stroke="#000000" stroke-width="1.00000000000" stroke-linecap="butt" stroke-linejoin="miter" stroke-miterlimit="2.00000000000" d="M0 0L64.4043 0"/>
  </g>
  <g id="entity_Nap" transform="translate(273.03, 942.539)" fill="none">
   <rect id="shape41" transform="translate(3, 3)" fill="#ffffff" stroke="#000000" stroke-width="1.00000000000" stroke-linecap="butt" stroke-linejoin="miter" stroke-miterlimit="2.00000000000" width="44.75080000000pt" height="35.20000000000pt" rx="2.00000000000pt" ry="2.00000000000pt"/>
   <path id="shape42" transform="translate(7, 8)" fill="#ffffff" stroke="#000000" stroke-width="1.00000000000" stroke-linecap="butt" stroke-linejoin="miter" stroke-miterlimit="2.00000000000" d="M18 9C18 4.02944 13.9706 3.04359e-16 9 0C4.02944 -3.04359e-16 6.08718e-16 4.02944 0 9C-6.08718e-16 13.9706 4.02944 18 9 18C13.9706 18 18 13.9706 18 9"/>
   <path id="shape43" transform="translate(11.2656, 10.375)" fill="#000000" d="M7.91191 12.6183C7.516 12.8219 7.09872 12.9719 6.66008 13.0684C6.22145 13.1755 5.76142 13.2291 5.27998 13.2291C3.56816 13.2291 2.25751 12.6665 1.34806 11.5413C0.449353 10.4054 0 8.76583 0 6.62259C0 4.47935 0.449353 2.83977 1.34806 1.70382C2.25751 0.567939 3.56816 -1.42109e-13 5.27998 0C5.76142 -1.42109e-13 6.22145 0.0535636 6.66008 0.160691C7.10948 0.267887 7.52675 0.423297 7.91191 0.626921L7.91191 3.42379C7.48395 3.02731 7.06667 2.73798 6.66008 2.55583C6.25356 2.3629 5.83632 2.26644 5.40837 2.26644C4.48823 2.26644 3.79279 2.63614 3.32203 3.37554C2.85128 4.10424 2.6159 5.18659 2.6159 6.62259C2.6159 8.05852 2.85128 9.14622 3.32203 9.88569C3.79279 10.6144 4.48823 10.9787 5.40837 10.9787C5.83632 10.9787 6.25356 10.8876 6.66008 10.7054C7.06667 10.5125 7.48395 10.2179 7.91191 9.82139Z"/>
   <text id="shape016" fill="#000000" font-family="Verdana" font-size="11.19999980927pt" x="0.00000000000pt" y="7.85937600000pt" transform="translate(28, 12.0225)"><tspan x="0"  y="9.82422">Nap</tspan></text>
   <path id="shape44" transform="translate(4, 31)" fill="#000000" stroke="#000000" stroke-width="1.00000000000" stroke-linecap="butt" stroke-linejoin="miter" stroke-miterlimit="2.00000000000" d="M0 0L53.9385 0"/>
   <path id="shape45" transform="translate(4, 39)" fill="#000000" stroke="#000000" stroke-width="1.00000000000" stroke-linecap="butt" stroke-linejoin="miter" stroke-miterlimit="2.00000000000" d="M0 0L53.9385 0"/>
  </g>
  <g id="entity_Ap" transform="translate(363.77, 942.539)" fill="none">
   <rect id="shape46" transform="translate(3, 3)" fill="#ffffff" stroke="#000000" stroke-width="1.00000000000" stroke-linecap="butt" stroke-linejoin="miter" stroke-miterlimit="2.00000000000" width="37.17112000000pt" height="35.20000000000pt" rx="2.00000000000pt" ry="2.00000000000pt"/>
   <path id="shape47" transform="translate(7, 8)" fill="#ffffff" stroke="#000000" stroke-width="1.00000000000" stroke-linecap="butt" stroke-linejoin="miter" stroke-miterlimit="2.00000000000" d="M18 9C18 4.02944 13.9706 3.04359e-16 9 0C4.02944 -3.04359e-16 6.08718e-16 4.02944 0 9C-6.08718e-16 13.9706 4.02944 18 9 18C13.9706 18 18 13.9706 18 9"/>
   <path id="shape48" transform="translate(11.2656, 10.375)" fill="#000000" d="M7.91191 12.6183C7.516 12.8219 7.09872 12.9719 6.66008 13.0684C6.22145 13.1755 5.76142 13.2291 5.27998 13.2291C3.56816 13.2291 2.25751 12.6665 1.34806 11.5413C0.449353 10.4054 0 8.76583 0 6.62259C0 4.47935 0.449353 2.83977 1.34806 1.70382C2.25751 0.567939 3.56816 -1.42109e-13 5.27998 0C5.76142 -1.42109e-13 6.22145 0.0535636 6.66008 0.160691C7.10948 0.267887 7.52675 0.423297 7.91191 0.626921L7.91191 3.42379C7.48395 3.02731 7.06667 2.73798 6.66008 2.55583C6.25356 2.3629 5.83632 2.26644 5.40837 2.26644C4.48823 2.26644 3.79279 2.63614 3.32203 3.37554C2.85128 4.10424 2.6159 5.18659 2.6159 6.62259C2.6159 8.05852 2.85128 9.14622 3.32203 9.88569C3.79279 10.6144 4.48823 10.9787 5.40837 10.9787C5.83632 10.9787 6.25356 10.8876 6.66008 10.7054C7.06667 10.5125 7.48395 10.2179 7.91191 9.82139Z"/>
   <text id="shape017" fill="#000000" font-family="Verdana" font-size="11.19999980927pt" x="0.00000000000pt" y="7.89062400000pt" transform="translate(28, 11.9834)"><tspan x="0"  y="9.86328">Ap</tspan></text>
   <path id="shape49" transform="translate(4, 31)" fill="#000000" stroke="#000000" stroke-width="1.00000000000" stroke-linecap="butt" stroke-linejoin="miter" stroke-miterlimit="2.00000000000" d="M0 0L44.4639 0"/>
   <path id="shape50" transform="translate(4, 39)" fill="#000000" stroke="#000000" stroke-width="1.00000000000" stroke-linecap="butt" stroke-linejoin="miter" stroke-miterlimit="2.00000000000" d="M0 0L44.4639 0"/>
  </g>
  <g id="entity_Manga" transform="translate(81.5, 364.199)" fill="none">
   <rect id="shape51" transform="translate(3, 3)" fill="#ffffff" stroke="#000000" stroke-width="1.00000000000" stroke-linecap="butt" stroke-linejoin="miter" stroke-miterlimit="2.00000000000" width="59.99768000000pt" height="35.20000000000pt" rx="2.00000000000pt" ry="2.00000000000pt"/>
   <path id="shape52" transform="translate(7, 8)" fill="#ffffff" stroke="#000000" stroke-width="1.00000000000" stroke-linecap="butt" stroke-linejoin="miter" stroke-miterlimit="2.00000000000" d="M18 9C18 4.02944 13.9706 3.04359e-16 9 0C4.02944 -3.04359e-16 6.08718e-16 4.02944 0 9C-6.08718e-16 13.9706 4.02944 18 9 18C13.9706 18 18 13.9706 18 9"/>
   <path id="shape53" transform="translate(11.2656, 10.375)" fill="#000000" d="M7.91191 12.6182C7.516 12.8218 7.09872 12.9718 6.66008 13.0683C6.22145 13.1754 5.76142 13.2289 5.27998 13.2289C3.56816 13.2289 2.25751 12.6663 1.34806 11.5412C0.449353 10.4053 0 8.76576 0 6.62254C0 4.47932 0.449353 2.83974 1.34806 1.70381C2.25751 0.567935 3.56816 0 5.27998 0C5.76142 0 6.22145 0.0535632 6.66008 0.16069C7.10948 0.267885 7.52675 0.42326 7.91191 0.626814L7.91191 3.42376C7.48395 3.02728 7.06667 2.73794 6.66008 2.55571C6.25356 2.36286 5.83632 2.26643 5.40837 2.26643C4.48823 2.26643 3.79279 2.63612 3.32203 3.37551C2.85128 4.10421 2.6159 5.18655 2.6159 6.62254C2.6159 8.05846 2.85128 9.14611 3.32203 9.88551C3.79279 10.6142 4.48823 10.9786 5.40837 10.9786C5.83632 10.9786 6.25356 10.8875 6.66008 10.7053C7.06667 10.5125 7.48395 10.2178 7.91191 9.82121Z"/>
   <text id="shape018" fill="#000000" font-family="Verdana" font-size="11.19999980927pt" x="0.00000000000pt" y="7.85937600000pt" transform="translate(28, 12.0225)"><tspan x="0"  y="9.82422">Manga</tspan></text>
   <path id="shape54" transform="translate(4, 31)" fill="#000000" stroke="#000000" stroke-width="1.00000000000" stroke-linecap="butt" stroke-linejoin="miter" stroke-miterlimit="2.00000000000" d="M0 0L72.9971 0"/>
   <path id="shape55" transform="translate(4, 39)" fill="#000000" stroke="#000000" stroke-width="1.00000000000" stroke-linecap="butt" stroke-linejoin="miter" stroke-miterlimit="2.00000000000" d="M0 0L72.9971 0"/>
  </g>
  <g id="entity_Splitter" transform="translate(97.72, 485.199)" fill="none">
   <rect id="shape56" transform="translate(3, 3)" fill="#ffffff" stroke="#000000" stroke-width="1.00000000000" stroke-linecap="butt" stroke-linejoin="miter" stroke-miterlimit="2.00000000000" width="126.85232000000pt" height="48.23752000000pt" rx="2.00000000000pt" ry="2.00000000000pt"/>
   <path id="shape57" transform="translate(44.0825, 8)" fill="#ffffff" stroke="#000000" stroke-width="1.00000000000" stroke-linecap="butt" stroke-linejoin="miter" stroke-miterlimit="2.00000000000" d="M18 9C18 4.02944 13.9706 3.04359e-16 9 0C4.02944 -3.04359e-16 6.08718e-16 4.02944 0 9C-6.08718e-16 13.9706 4.02944 18 9 18C13.9706 18 18 13.9706 18 9"/>
   <path id="shape58" transform="translate(48.3481, 10.375)" fill="#000000" d="M7.91191 12.6183C7.516 12.8219 7.09872 12.9719 6.66008 13.0684C6.22145 13.1755 5.76142 13.2291 5.27998 13.2291C3.56816 13.2291 2.25751 12.6665 1.34806 11.5413C0.449353 10.4054 0 8.76583 0 6.62259C0 4.47935 0.449353 2.83977 1.34806 1.70382C2.25751 0.567939 3.56816 0 5.27998 0C5.76142 0 6.22145 0.0535636 6.66008 0.160691C7.10948 0.267887 7.52675 0.423297 7.91191 0.626921L7.91191 3.42379C7.48395 3.02731 7.06667 2.73798 6.66008 2.55583C6.25356 2.3629 5.83632 2.26644 5.40837 2.26644C4.48823 2.26644 3.79279 2.63614 3.32203 3.37554C2.85128 4.10424 2.6159 5.18659 2.6159 6.62259C2.6159 8.05852 2.85128 9.14622 3.32203 9.88569C3.79279 10.6144 4.48823 10.9787 5.40837 10.9787C5.83632 10.9787 6.25356 10.8876 6.66008 10.7054C7.06667 10.5125 7.48395 10.2179 7.91191 9.82139Z"/>
   <text id="shape019" fill="#000000" font-family="Verdana" font-size="11.19999980927pt" x="0.00000000000pt" y="8.35936000000pt" transform="translate(70.5825, 11.3975)"><tspan x="0"  y="10.4492">Splitter</tspan></text>
   <path id="shape59" transform="translate(4, 31)" fill="#000000" stroke="#000000" stroke-width="1.00000000000" stroke-linecap="butt" stroke-linejoin="miter" stroke-miterlimit="2.00000000000" d="M0 0L156.565 0"/>
   <rect id="shape60" transform="translate(11, 41.6484)" fill="none" stroke="#000000" stroke-width="1.00000000000" stroke-linecap="butt" stroke-linejoin="miter" stroke-miterlimit="2.00000000000" width="4.80000000000pt" height="4.80000000000pt"/>
   <text id="shape020" fill="#000000" font-family="Verdana" font-size="11.19999980927pt" x="0.00000000000pt" y="8.35936000000pt" transform="translate(21, 37.5459)"><tspan x="0"  y="10.4492">manga_id: int «FK»</tspan></text>
   <path id="shape61" transform="translate(4, 55.2969)" fill="#000000" stroke="#000000" stroke-width="1.00000000000" stroke-linecap="butt" stroke-linejoin="miter" stroke-miterlimit="2.00000000000" d="M0 0L156.565 0"/>
  </g>
  <g id="entity_Olt" transform="translate(376.8, 622.499)" fill="none">
   <rect id="shape62" transform="translate(3, 3)" fill="#ffffff" stroke="#000000" stroke-width="1.00000000000" stroke-linecap="butt" stroke-linejoin="miter" stroke-miterlimit="2.00000000000" width="38.71872000000pt" height="35.20000000000pt" rx="2.00000000000pt" ry="2.00000000000pt"/>
   <path id="shape63" transform="translate(7, 8)" fill="#ffffff" stroke="#000000" stroke-width="1.00000000000" stroke-linecap="butt" stroke-linejoin="miter" stroke-miterlimit="2.00000000000" d="M18 9C18 4.02944 13.9706 3.04359e-16 9 0C4.02944 -3.04359e-16 6.08718e-16 4.02944 0 9C-6.08718e-16 13.9706 4.02944 18 9 18C13.9706 18 18 13.9706 18 9"/>
   <path id="shape64" transform="translate(11.2656, 10.375)" fill="#000000" d="M7.91191 12.6183C7.516 12.8219 7.09872 12.9719 6.66008 13.0684C6.22145 13.1755 5.76142 13.2291 5.27998 13.2291C3.56816 13.2291 2.25751 12.6665 1.34806 11.5413C0.449353 10.4054 0 8.76583 0 6.62259C0 4.47935 0.449353 2.83977 1.34806 1.70382C2.25751 0.567939 3.56816 -1.42109e-13 5.27998 0C5.76142 -1.42109e-13 6.22145 0.0535636 6.66008 0.160691C7.10948 0.267887 7.52675 0.423297 7.91191 0.626921L7.91191 3.42379C7.48395 3.02731 7.06667 2.73798 6.66008 2.55583C6.25356 2.3629 5.83632 2.26644 5.40837 2.26644C4.48823 2.26644 3.79279 2.63614 3.32203 3.37554C2.85128 4.10424 2.6159 5.18659 2.6159 6.62259C2.6159 8.05852 2.85128 9.14622 3.32203 9.88569C3.79279 10.6144 4.48823 10.9787 5.40837 10.9787C5.83632 10.9787 6.25356 10.8876 6.66008 10.7054C7.06667 10.5125 7.48395 10.2179 7.91191 9.82139Z"/>
   <text id="shape021" fill="#000000" font-family="Verdana" font-size="11.19999980927pt" x="0.00000000000pt" y="8.35936000000pt" transform="translate(28, 11.3975)"><tspan x="0"  y="10.4492">Olt</tspan></text>
   <path id="shape65" transform="translate(4, 31)" fill="#000000" stroke="#000000" stroke-width="1.00000000000" stroke-linecap="butt" stroke-linejoin="miter" stroke-miterlimit="2.00000000000" d="M0 0L46.3984 0"/>
   <path id="shape66" transform="translate(4, 39)" fill="#000000" stroke="#000000" stroke-width="1.00000000000" stroke-linecap="butt" stroke-linejoin="miter" stroke-miterlimit="2.00000000000" d="M0 0L46.3984 0"/>
  </g>
  <g id="entity_PuertoOlt" transform="translate(252.02, 743.499)" fill="none">
   <rect id="shape67" transform="translate(3, 3)" fill="#ffffff" stroke="#000000" stroke-width="1.00000000000" stroke-linecap="butt" stroke-linejoin="miter" stroke-miterlimit="2.00000000000" width="102.36328000000pt" height="61.27504000000pt" rx="2.00000000000pt" ry="2.00000000000pt"/>
   <path id="shape68" transform="translate(22.2174, 8)" fill="#ffffff" stroke="#000000" stroke-width="1.00000000000" stroke-linecap="butt" stroke-linejoin="miter" stroke-miterlimit="2.00000000000" d="M18 9C18 4.02944 13.9706 3.04359e-16 9 0C4.02944 -3.04359e-16 6.08718e-16 4.02944 0 9C-6.08718e-16 13.9706 4.02944 18 9 18C13.9706 18 18 13.9706 18 9"/>
   <path id="shape69" transform="translate(26.483, 10.375)" fill="#000000" d="M7.9117 12.6183C7.51586 12.8219 7.09862 12.9719 6.66 13.0684C6.22137 13.1755 5.7613 13.2291 5.27981 13.2291C3.56801 13.2291 2.25742 12.6665 1.34804 11.5413C0.449347 10.4054 0 8.76583 0 6.62259C0 4.47935 0.449347 2.83977 1.34804 1.70382C2.25742 0.567939 3.56801 -1.42109e-13 5.27981 0C5.7613 -1.42109e-13 6.22137 0.0535636 6.66 0.160691C7.10931 0.267887 7.52654 0.423297 7.9117 0.626921L7.9117 3.42379C7.48375 3.02731 7.06652 2.73798 6.66 2.55583C6.25342 2.3629 5.83614 2.26644 5.40819 2.26644C4.48813 2.26644 3.79274 2.63614 3.32199 3.37554C2.85124 4.10424 2.61587 5.18659 2.61587 6.62259C2.61587 8.05852 2.85124 9.14622 3.32199 9.88569C3.79274 10.6144 4.48813 10.9787 5.40819 10.9787C5.83614 10.9787 6.25342 10.8876 6.66 10.7054C7.06652 10.5125 7.48375 10.2179 7.9117 9.82139Z"/>
   <text id="shape022" fill="#000000" font-family="Verdana" font-size="11.19999980927pt" x="0.00000000000pt" y="8.35936000000pt" transform="translate(46.599, 11.3975)"><tspan x="0"  y="10.4492">PuertoOlt</tspan></text>
   <path id="shape70" transform="translate(4, 31)" fill="#000000" stroke="#000000" stroke-width="1.00000000000" stroke-linecap="butt" stroke-linejoin="miter" stroke-miterlimit="2.00000000000" d="M0 0L125.954 0"/>
   <rect id="shape71" transform="translate(11, 41.6484)" fill="none" stroke="#000000" stroke-width="1.00000000000" stroke-linecap="butt" stroke-linejoin="miter" stroke-miterlimit="2.00000000000" width="4.80000000000pt" height="4.80000000000pt"/>
   <text id="shape023" fill="#000000" font-family="Verdana" font-size="11.19999980927pt" x="0.00000000000pt" y="8.35936000000pt" transform="translate(21, 37.5459)"><tspan x="0"  y="10.4492">id: int</tspan></text>
   <rect id="shape72" transform="translate(11, 57.9453)" fill="none" stroke="#000000" stroke-width="1.00000000000" stroke-linecap="butt" stroke-linejoin="miter" stroke-miterlimit="2.00000000000" width="4.80000000000pt" height="4.80000000000pt"/>
   <text id="shape024" fill="#000000" font-family="Verdana" font-size="11.19999980927pt" x="0.00000000000pt" y="8.35936000000pt" transform="translate(21, 53.8428)"><tspan x="0"  y="10.4492">olt_id: int «FK»</tspan></text>
   <path id="shape73" transform="translate(4, 71.5937)" fill="#000000" stroke="#000000" stroke-width="1.00000000000" stroke-linecap="butt" stroke-linejoin="miter" stroke-miterlimit="2.00000000000" d="M0 0L125.954 0"/>
  </g>
  <g id="entity_Radius" transform="translate(407.37, 1122.58)" fill="none">
   <rect id="shape74" transform="translate(3, 3)" fill="#ffffff" stroke="#000000" stroke-width="1.00000000000" stroke-linecap="butt" stroke-linejoin="miter" stroke-miterlimit="2.00000000000" width="60.20000000000pt" height="35.20000000000pt" rx="2.00000000000pt" ry="2.00000000000pt"/>
   <path id="shape75" transform="translate(7, 8)" fill="#ffffff" stroke="#000000" stroke-width="1.00000000000" stroke-linecap="butt" stroke-linejoin="miter" stroke-miterlimit="2.00000000000" d="M18 9C18 4.02944 13.9706 3.04359e-16 9 0C4.02944 -3.04359e-16 6.08718e-16 4.02944 0 9C-6.08718e-16 13.9706 4.02944 18 9 18C13.9706 18 18 13.9706 18 9"/>
   <path id="shape76" transform="translate(11.2656, 10.375)" fill="#000000" d="M7.91191 12.6183C7.516 12.8219 7.09872 12.9719 6.66008 13.0684C6.22145 13.1755 5.76142 13.2291 5.27998 13.2291C3.56816 13.2291 2.25751 12.6665 1.34806 11.5413C0.449353 10.4054 -7.10543e-14 8.76583 0 6.62259C-7.10543e-14 4.47935 0.449353 2.83977 1.34806 1.70382C2.25751 0.567939 3.56816 0 5.27998 0C5.76142 0 6.22145 0.0535636 6.66008 0.160691C7.10948 0.267887 7.52675 0.423297 7.91191 0.626921L7.91191 3.42379C7.48395 3.02731 7.06667 2.73798 6.66008 2.55583C6.25356 2.3629 5.83632 2.26644 5.40837 2.26644C4.48823 2.26644 3.79279 2.63614 3.32203 3.37554C2.85128 4.10424 2.6159 5.18659 2.6159 6.62259C2.6159 8.05852 2.85128 9.14622 3.32203 9.88569C3.79279 10.6144 4.48823 10.9787 5.40837 10.9787C5.83632 10.9787 6.25356 10.8876 6.66008 10.7054C7.06667 10.5125 7.48395 10.2179 7.91191 9.82139Z"/>
   <text id="shape025" fill="#000000" font-family="Verdana" font-size="11.19999980927pt" x="0.00000000000pt" y="8.35936000000pt" transform="translate(28, 11.3975)"><tspan x="0"  y="10.4492">Radius</tspan></text>
   <path id="shape77" transform="translate(4, 31)" fill="#000000" stroke="#000000" stroke-width="1.00000000000" stroke-linecap="butt" stroke-linejoin="miter" stroke-miterlimit="2.00000000000" d="M0 0L73.25 0"/>
   <path id="shape78" transform="translate(4, 39)" fill="#000000" stroke="#000000" stroke-width="1.00000000000" stroke-linecap="butt" stroke-linejoin="miter" stroke-miterlimit="2.00000000000" d="M0 0L73.25 0"/>
  </g>
  <g id="link_Nodo_Asset" transform="translate(25, 287.715)" fill="none">
   <path id="Nodo-backto-Asset" transform="translate(3, 14.0345)" fill="none" stroke="#000000" stroke-width="1.00000000000" stroke-linecap="butt" stroke-linejoin="miter" stroke-miterlimit="2.00000000000" d="M48.0889 0C20.7566 21.2246 0 45.3465 0 86.3867C0 86.3867 0 86.3867 0 666.307C0 722.626 45.0928 768.882 87.9005 800.09"/>
   <path id="shape79" transform="translate(47.2923, 2.97391)" fill="none" stroke="#000000" stroke-width="1.00000000000" stroke-linecap="butt" stroke-linejoin="miter" stroke-miterlimit="2.00000000000" d="M18.284 0L0 6.14953L7.53716 15.3512Z"/>
  </g>
  <g id="link_Poste_Asset" transform="translate(137.652, 987.223)" fill="none">
   <path id="Poste-backto-Asset" transform="translate(8.71446, 19.9394)" fill="none" stroke="#000000" stroke-width="1.00000000000" stroke-linecap="butt" stroke-linejoin="miter" stroke-miterlimit="2.00000000000" d="M0 0C8.71947 27.2324 18.5314 57.8554 29.9276 93.4233"/>
   <path id="shape80" transform="translate(2.99996, 2.79593)" fill="none" stroke="#000000" stroke-width="1.00000000000" stroke-linecap="butt" stroke-linejoin="miter" stroke-miterlimit="2.00000000000" d="M0.231933 0L0 19.1972L11.6108 15.4963Z"/>
  </g>
  <g id="link_Nap_Asset" transform="translate(220.375, 986.955)" fill="none">
   <path id="Nap-backto-Asset" transform="translate(3.19536, 18.5793)" fill="none" stroke="#000000" stroke-width="1.00000000000" stroke-linecap="butt" stroke-linejoin="miter" stroke-miterlimit="2.00000000000" d="M59.751 0C48.9435 19.4407 41.0346 32.9756 25.3772 57.754C17.4237 70.3292 8.46239 83.6984 0 95.9921"/>
   <path id="shape81" transform="translate(57.8357, 2.87407)" fill="none" stroke="#000000" stroke-width="1.00000000000" stroke-linecap="butt" stroke-linejoin="miter" stroke-miterlimit="2.00000000000" d="M14.3151 0L0 12.6966L10.6832 18.5242Z"/>
  </g>
  <g id="link_Splitter_Asset" transform="translate(171.856, 546.104)" fill="none">
   <path id="Splitter-backto-Asset" transform="translate(8.97914, 20.6528)" fill="none" stroke="#000000" stroke-width="1.00000000000" stroke-linecap="butt" stroke-linejoin="miter" stroke-miterlimit="2.00000000000" d="M0 0C1.8836 100.43 7.73187 412.217 10.0222 534.175"/>
   <path id="shape82" transform="translate(2.98004, 2.65561)" fill="none" stroke="#000000" stroke-width="1.00000000000" stroke-linecap="butt" stroke-linejoin="miter" stroke-miterlimit="2.00000000000" d="M5.45544 0L0 18.7255L11.5165 18.5079Z"/>
  </g>
  <g id="link_Manga_Asset" transform="translate(62, 408.503)" fill="none">
   <path id="Manga-backto-Asset" transform="translate(3, 17.6865)" fill="none" stroke="#000000" stroke-width="1.00000000000" stroke-linecap="butt" stroke-linejoin="miter" stroke-miterlimit="2.00000000000" d="M30.3322 0C13.6001 24.2242 0 50.9769 0 91.1007C0 91.1007 0 91.1007 0 541.997C0 573.856 2.19453 583.719 17.874 611.401C31.0114 634.596 50.365 656.302 69.0234 674.12"/>
   <path id="shape83" transform="translate(28.6194, 2.90659)" fill="none" stroke="#000000" stroke-width="1.00000000000" stroke-linecap="butt" stroke-linejoin="miter" stroke-miterlimit="2.00000000000" d="M15.4039 0L0 11.0248L9.98507 17.6749Z"/>
  </g>
  <g id="link_Ap_Asset" transform="translate(222.754, 987.204)" fill="none">
   <path id="Ap-backto-Asset" transform="translate(3.20587, 19.5528)" fill="none" stroke="#000000" stroke-width="1.00000000000" stroke-linecap="butt" stroke-linejoin="miter" stroke-miterlimit="2.00000000000" d="M150.999 0C144.688 15.9377 140.375 19.9895 123.449 31.3063C102.479 45.3194 89.8677 28.1288 67.2628 39.3252C41.3269 52.1656 17.8792 74.0674 0 94.195"/>
   <path id="shape84" transform="translate(148.125, 2.81497)" fill="none" stroke="#000000" stroke-width="1.00000000000" stroke-linecap="butt" stroke-linejoin="miter" stroke-miterlimit="2.00000000000" d="M11.9086 0L0 14.6819L10.8913 19.142Z"/>
  </g>
  <g id="link_Ap_Dispositivo" transform="translate(324.734, 986.967)" fill="none">
   <path id="Ap-backto-Dispositivo" transform="translate(3.0227, 19.2618)" fill="none" stroke="#000000" stroke-width="1.00000000000" stroke-linecap="butt" stroke-linejoin="miter" stroke-miterlimit="2.00000000000" d="M46.5135 0C39.7202 15.1673 36.1249 18.6896 21.1916 31.7758C14.3085 37.7987 7.29565 32.136 2.23807 39.7797C-1.93169 46.0727 0.721798 49.3743 2.23807 56.7878C18.987 138.586 70.5204 220.916 108.218 272.761"/>
   <path id="shape85" transform="translate(44.1774, 2.84238)" fill="none" stroke="#000000" stroke-width="1.00000000000" stroke-linecap="butt" stroke-linejoin="miter" stroke-miterlimit="2.00000000000" d="M13.2075 0L0 14.0561L11.2518 19.0069Z"/>
  </g>
  <g id="link_Core_Dispositivo" transform="translate(499.606, 986.748)" fill="none">
   <path id="Core-backto-Dispositivo" transform="translate(3.15355, 16.1639)" fill="none" stroke="#000000" stroke-width="1.00000000000" stroke-linecap="butt" stroke-linejoin="miter" stroke-miterlimit="2.00000000000" d="M47.3021 0C64.0265 18.0556 70.8532 32.2539 66.3366 59.9965C53.7683 137.132 22.2123 222.028 0 275.506"/>
   <path id="shape86" transform="translate(38.1735, 2.94143)" fill="none" stroke="#000000" stroke-width="1.00000000000" stroke-linecap="butt" stroke-linejoin="miter" stroke-miterlimit="2.00000000000" d="M0 0L7.98392 17.0897L17 9.04347Z"/>
  </g>
  <g id="link_Olt_Dispositivo" transform="translate(425.823, 651.079)" fill="none">
   <path id="Olt-backto-Dispositivo" transform="translate(20.0721, 8.76141)" fill="none" stroke="#000000" stroke-width="1.00000000000" stroke-linecap="butt" stroke-linejoin="miter" stroke-miterlimit="2.00000000000" d="M0 0C48.6777 14.1382 135.21 48.1765 135.21 124.03C135.21 124.03 135.21 124.03 135.21 489.022C135.21 537.3 108.068 584.787 81.7779 619.468"/>
   <path id="shape87" transform="translate(2.78665, 2.99961)" fill="none" stroke="#000000" stroke-width="1.00000000000" stroke-linecap="butt" stroke-linejoin="miter" stroke-miterlimit="2.00000000000" d="M0 0.758407L15.7858 11.8039L19.1708 0Z"/>
  </g>
  <g id="link_Radius_Dispositivo" transform="translate(445.694, 1167.33)" fill="none">
   <path id="Radius-backto-Dispositivo" transform="translate(8.91036, 20.4948)" fill="none" stroke="#000000" stroke-width="1.00000000000" stroke-linecap="butt" stroke-linejoin="miter" stroke-miterlimit="2.00000000000" d="M0 0C4.54369 26.3914 9.3894 54.4969 15.6382 90.709"/>
   <path id="shape88" transform="translate(2.99336, 2.74395)" fill="none" stroke="#000000" stroke-width="1.00000000000" stroke-linecap="butt" stroke-linejoin="miter" stroke-miterlimit="2.00000000000" d="M3.08504 0L0 18.7412L12.4483 16.7522Z"/>
  </g>
  <g id="link_Zona_Asset" transform="translate(172.008, 166.385)" fill="none">
   <path id="Zona-Asset" transform="translate(23.9218, 3.17417)" fill="none" stroke="#000000" stroke-width="1.00000000000" stroke-linecap="butt" stroke-linejoin="miter" stroke-miterlimit="2.00000000000" d="M70.8187 0C84.523 26.3877 99.391 62.9946 99.391 97.6316C99.391 97.6316 99.391 97.6316 99.391 281.116C99.391 325.312 89.6295 335.501 81.3327 378.907C64.4983 467.01 56.1614 488.288 42.2063 576.89C31.6021 644.245 9.79163 841.098 0 931.09"/>
   <path id="shape89" transform="translate(102.367, 416.425)" fill="#000000" stroke="#000000" stroke-width="1.00000000000" stroke-linecap="butt" stroke-linejoin="miter" stroke-miterlimit="2.00000000000" d="M2.10687 9.7604L5.49621 0.469252L0 0Z"/>
   <text id="shape026" fill="#000000" font-family="Verdana" font-size="10.39999961853pt" x="0.00000000000pt" y="7.35937600000pt" transform="translate(113.992, 415.982)"><tspan x="0"  y="9.19922">Contiene</tspan></text>
   <text id="shape027" fill="#000000" font-family="Verdana" font-size="10.39999961853pt" x="0.00000000000pt" y="7.14062400000pt" transform="translate(89.601, 13.9704)"><tspan x="0"  y="8.92578">1</tspan></text>
   <text id="shape028" fill="#000000" font-family="Verdana" font-size="10.39999961853pt" x="0.00000000000pt" y="7.59375200000pt" transform="translate(0, 914.286)"><tspan x="0"  y="9.49219">0..*</tspan></text>
  </g>
  <g id="link_Manga_Splitter" transform="translate(125.208, 408.328)" fill="none">
   <path id="Manga-Splitter" transform="translate(6.5017, 3.16179)" fill="none" stroke="#000000" stroke-width="1.00000000000" stroke-linecap="butt" stroke-linejoin="miter" stroke-miterlimit="2.00000000000" d="M0 0C9.49911 20.9639 24.0863 53.1513 34.7006 76.5703"/>
   <path id="shape90" transform="translate(28.4392, 36.5383)" fill="#000000" stroke="#000000" stroke-width="1.00000000000" stroke-linecap="butt" stroke-linejoin="miter" stroke-miterlimit="2.00000000000" d="M6.60963 8.92855L5.49961 0L0 2.30473Z"/>
   <text id="shape029" fill="#000000" font-family="Verdana" font-size="10.39999961853pt" x="0.00000000000pt" y="7.35937600000pt" transform="translate(41.7917, 36.7395)"><tspan x="0"  y="9.19922">Contiene</tspan></text>
   <text id="shape030" fill="#000000" font-family="Verdana" font-size="10.39999961853pt" x="0.00000000000pt" y="7.14062400000pt" transform="translate(0, 13.9536)"><tspan x="0"  y="8.92578">1</tspan></text>
   <text id="shape031" fill="#000000" font-family="Verdana" font-size="10.39999961853pt" x="0.00000000000pt" y="7.59375200000pt" transform="translate(13.2109, 59.3333)"><tspan x="0"  y="9.49219">0..*</tspan></text>
  </g>
  <g id="link_Olt_PuertoOlt" transform="translate(296.699, 651.202)" fill="none">
   <path id="Olt-PuertoOlt" transform="translate(24.5811, 10.1372)" fill="none" stroke="#000000" stroke-width="1.00000000000" stroke-linecap="butt" stroke-linejoin="miter" stroke-miterlimit="2.00000000000" d="M58.6255 0C43.9741 8.82415 26.3138 21.8803 15.8731 38.178C6.9672 52.0845 2.36279 69.6127 0 85.08"/>
   <path id="shape91" transform="translate(42.4818, 51.8657)" fill="#000000" stroke="#000000" stroke-width="1.00000000000" stroke-linecap="butt" stroke-linejoin="miter" stroke-miterlimit="2.00000000000" d="M0 9.52087L7.5547 3.45721L2.68273 0Z"/>
   <text id="shape032" fill="#000000" font-family="Verdana" font-size="10.39999961853pt" x="0.00000000000pt" y="7.35937600000pt" transform="translate(54.3011, 52.1649)"><tspan x="0"  y="9.19922">Contiene</tspan></text>
   <text id="shape033" fill="#000000" font-family="Verdana" font-size="10.39999961853pt" x="0.00000000000pt" y="7.14062400000pt" transform="translate(66.9754, 0)"><tspan x="0"  y="8.92578">1</tspan></text>
   <text id="shape034" fill="#000000" font-family="Verdana" font-size="10.39999961853pt" x="0.00000000000pt" y="7.59375200000pt" transform="translate(0, 74.8713)"><tspan x="0"  y="9.49219">0..*</tspan></text>
  </g>
  <g id="link_Splitter_Olt" transform="translate(256.232, 524.435)" fill="none">
   <path id="Splitter-Olt" transform="translate(3.11832, 10.9441)" fill="none" stroke="#000000" stroke-width="1.00000000000" stroke-linecap="butt" stroke-linejoin="miter" stroke-miterlimit="2.00000000000" d="M0 0C31.4905 9.01682 66.745 22.6765 94.5014 42.9619C111.145 55.1271 124.594 74.446 133.33 89.3412"/>
   <path id="shape92" transform="translate(114.772, 57.9356)" fill="#000000" stroke="#000000" stroke-width="1.00000000000" stroke-linecap="butt" stroke-linejoin="miter" stroke-miterlimit="2.00000000000" d="M9.56327 7.46444L3.42559 0L0 4.86822Z"/>
   <text id="shape035" fill="#000000" font-family="Verdana" font-size="10.39999961853pt" x="0.00000000000pt" y="7.35937600000pt" transform="translate(128.768, 57.9318)"><tspan x="0"  y="9.19922">Contiene</tspan></text>
   <text id="shape036" fill="#000000" font-family="Verdana" font-size="10.39999961853pt" x="0.00000000000pt" y="7.14062400000pt" transform="translate(11.0753, 0)"><tspan x="0"  y="8.92578">1</tspan></text>
   <text id="shape037" fill="#000000" font-family="Verdana" font-size="10.39999961853pt" x="0.00000000000pt" y="7.59375200000pt" transform="translate(107.869, 80.5311)"><tspan x="0"  y="9.49219">0..*</tspan></text>
  </g>
  <g id="link_PuertoOlt_Core" transform="translate(380.252, 794.271)" fill="none">
   <path id="PuertoOlt-Core" transform="translate(3.14754, 10.4885)" fill="none" stroke="#000000" stroke-width="1.00000000000" stroke-linecap="butt" stroke-linejoin="miter" stroke-miterlimit="2.00000000000" d="M0 0C27.3456 10.6689 57.89 26.3714 79.8207 48.4612C105.692 74.5217 120.122 115.753 126.951 140.761"/>
   <path id="shape93" transform="translate(95.8559, 62.4127)" fill="#000000" stroke="#000000" stroke-width="1.00000000000" stroke-linecap="butt" stroke-linejoin="miter" stroke-miterlimit="2.00000000000" d="M7.7601 8.62108L4.11068 0L0 3.90739Z"/>
   <text id="shape038" fill="#000000" font-family="Verdana" font-size="10.39999961853pt" x="0.00000000000pt" y="7.35937600000pt" transform="translate(109.748, 62.6862)"><tspan x="0"  y="9.19922">Contiene</tspan></text>
   <text id="shape039" fill="#000000" font-family="Verdana" font-size="10.39999961853pt" x="0.00000000000pt" y="7.14062400000pt" transform="translate(10.6439, 0)"><tspan x="0"  y="8.92578">1</tspan></text>
   <text id="shape040" fill="#000000" font-family="Verdana" font-size="10.39999961853pt" x="0.00000000000pt" y="7.59375200000pt" transform="translate(102.523, 130.798)"><tspan x="0"  y="9.49219">0..*</tspan></text>
  </g>
  <g id="link_PuertoOlt_Nap" transform="translate(250.322, 820.034)" fill="none">
   <path id="PuertoOlt-Nap" transform="translate(2.99443, 3.2053)" fill="none" stroke="#000000" stroke-width="1.00000000000" stroke-linecap="butt" stroke-linejoin="miter" stroke-miterlimit="2.00000000000" d="M22.626 0C14.9068 8.90935 7.98579 18.9847 3.72206 29.7477C-9.04895 62.0067 13.6943 99.0293 31.9011 121.661"/>
   <path id="shape94" transform="translate(8.4443, 37.3676)" fill="#000000" stroke="#000000" stroke-width="1.00000000000" stroke-linecap="butt" stroke-linejoin="miter" stroke-miterlimit="2.00000000000" d="M3.38446 9.75744L5.49677 0L0 0.465485Z"/>
   <text id="shape041" fill="#000000" font-family="Verdana" font-size="10.39999961853pt" x="0.00000000000pt" y="7.35937600000pt" transform="translate(20.6783, 36.923)"><tspan x="0"  y="9.19922">Contiene</tspan></text>
   <text id="shape042" fill="#000000" font-family="Verdana" font-size="10.39999961853pt" x="0.00000000000pt" y="7.14062400000pt" transform="translate(9.2841, 14.2543)"><tspan x="0"  y="8.92578">1</tspan></text>
   <text id="shape043" fill="#000000" font-family="Verdana" font-size="10.39999961853pt" x="0.00000000000pt" y="7.59375200000pt" transform="translate(3.3469, 104.891)"><tspan x="0"  y="9.49219">0..*</tspan></text>
  </g>
  <g id="link_Core_Contrato" transform="translate(542.661, 960.648)" fill="none">
   <path id="Core-Contrato" transform="translate(3.06868, 12.3016)" fill="none" stroke="#000000" stroke-width="1.00000000000" stroke-linecap="butt" stroke-linejoin="miter" stroke-miterlimit="2.00000000000" d="M0 0C63.4322 9.52069 212.892 34.3382 333.65 72.7396C384.728 88.9726 439.871 112.486 483.601 132.652"/>
   <path id="shape95" transform="translate(382.658, 89.9995)" fill="#000000" stroke="#000000" stroke-width="1.00000000000" stroke-linecap="butt" stroke-linejoin="miter" stroke-miterlimit="2.00000000000" d="M9.02671 4.74853L1.48452 0L0 5.13729Z"/>
   <text id="shape044" fill="#000000" font-family="Verdana" font-size="10.39999961853pt" x="0.00000000000pt" y="7.59375200000pt" transform="translate(396.339, 88.9163)"><tspan x="0"  y="9.49219">&quot;Conectado a&quot;</tspan></text>
   <text id="shape045" fill="#000000" font-family="Verdana" font-size="10.39999961853pt" x="0.00000000000pt" y="7.14062400000pt" transform="translate(10.6944, 0)"><tspan x="0"  y="8.92578">1</tspan></text>
   <text id="shape046" fill="#000000" font-family="Verdana" font-size="10.39999961853pt" x="0.00000000000pt" y="7.59375200000pt" transform="translate(455.359, 129.029)"><tspan x="0"  y="9.49219">0..*</tspan></text>
  </g>
  <g id="link_Ap_Contrato" transform="translate(401.549, 986.685)" fill="none">
   <path id="Ap-Contrato" transform="translate(4.8011, 3.20476)" fill="none" stroke="#000000" stroke-width="1.00000000000" stroke-linecap="butt" stroke-linejoin="miter" stroke-miterlimit="2.00000000000" d="M0 0C14.0575 16.5591 35.9237 38.2966 60.6393 48.2721C87.8645 59.2513 296.228 48.7438 324.593 56.3008C340.16 60.4355 341.53 67.6312 356.587 73.3616C444.751 106.871 550.653 130.134 622.28 143.522"/>
   <path id="shape96" transform="translate(361.851, 64.101)" fill="#000000" stroke="#000000" stroke-width="1.00000000000" stroke-linecap="butt" stroke-linejoin="miter" stroke-miterlimit="2.00000000000" d="M8.97472 4.48196L1.247 0L0 5.2507Z"/>
   <text id="shape047" fill="#000000" font-family="Verdana" font-size="10.39999961853pt" x="0.00000000000pt" y="7.59375200000pt" transform="translate(375.451, 62.8795)"><tspan x="0"  y="9.49219">&quot;Conectado a&quot;</tspan></text>
   <text id="shape048" fill="#000000" font-family="Verdana" font-size="10.39999961853pt" x="0.00000000000pt" y="7.14062400000pt" transform="translate(0, 14.0119)"><tspan x="0"  y="8.92578">1</tspan></text>
   <text id="shape049" fill="#000000" font-family="Verdana" font-size="10.39999961853pt" x="0.00000000000pt" y="7.59375200000pt" transform="translate(596.721, 148.222)"><tspan x="0"  y="9.49219">0..*</tspan></text>
  </g>
  <g id="link_Nap_Contrato" transform="translate(304.482, 986.763)" fill="none">
   <path id="Nap-Contrato" transform="translate(7.058, 3.15669)" fill="none" stroke="#000000" stroke-width="1.00000000000" stroke-linecap="butt" stroke-linejoin="miter" stroke-miterlimit="2.00000000000" d="M0 0C6.98 16.2595 19.09 37.5563 37.46 47.9504C59.13 60.1999 237.1 50.7435 261.46 55.9305C281.15 60.1201 284.08 67.4119 303.46 72.8882C446.3 113.208 618.16 136.749 717.5 148.011"/>
   <path id="shape97" transform="translate(310.962, 64.0959)" fill="#000000" stroke="#000000" stroke-width="1.00000000000" stroke-linecap="butt" stroke-linejoin="miter" stroke-miterlimit="2.00000000000" d="M8.93554 4.33754L1.12517 0L0 5.30105Z"/>
   <text id="shape050" fill="#000000" font-family="Verdana" font-size="10.39999961853pt" x="0.00000000000pt" y="7.59375200000pt" transform="translate(324.518, 62.8014)"><tspan x="0"  y="9.49219">&quot;Conectado a&quot;</tspan></text>
   <text id="shape051" fill="#000000" font-family="Verdana" font-size="10.39999961853pt" x="0.00000000000pt" y="7.14062400000pt" transform="translate(0, 13.9715)"><tspan x="0"  y="8.92578">1</tspan></text>
   <text id="shape052" fill="#000000" font-family="Verdana" font-size="10.39999961853pt" x="0.00000000000pt" y="7.59375200000pt" transform="translate(693.528, 137.675)"><tspan x="0"  y="9.49219">0..*</tspan></text>
  </g>
  <g id="link_Core_Radius" transform="translate(449.529, 986.54)" fill="none">
   <path id="Core-Radius" transform="translate(3.10096, 3.17951)" fill="none" stroke="#000000" stroke-width="1.00000000000" stroke-linecap="butt" stroke-linejoin="miter" stroke-miterlimit="2.00000000000" d="M50.5817 0C42.1631 15.2249 31.1496 36.4542 23.5055 56.0305C13.1156 82.6268 4.81778 114.55 0 135.092"/>
   <path id="shape98" transform="translate(29.7332, 63.2015)" fill="#000000" stroke="#000000" stroke-width="1.00000000000" stroke-linecap="butt" stroke-linejoin="miter" stroke-miterlimit="2.00000000000" d="M0 9.03013L5.56847 1.9414L0.366235 0Z"/>
   <text id="shape053" fill="#000000" font-family="Verdana" font-size="10.39999961853pt" x="0.00000000000pt" y="7.35937600000pt" transform="translate(40.471, 63.3172)"><tspan x="0"  y="9.19922">&quot;Autentica&quot;</tspan></text>
   <text id="shape054" fill="#000000" font-family="Verdana" font-size="10.39999961853pt" x="0.00000000000pt" y="7.14062400000pt" transform="translate(41.1046, 14.3149)"><tspan x="0"  y="8.92578">1</tspan></text>
   <text id="shape055" fill="#000000" font-family="Verdana" font-size="10.39999961853pt" x="0.00000000000pt" y="7.59375200000pt" transform="translate(7.44206, 118.463)"><tspan x="0"  y="9.49219">0..*</tspan></text>
  </g>
  <g id="link_Olt_Radius" transform="translate(359.919, 666.606)" fill="none">
   <path id="Olt-Radius" transform="translate(2.99526, 3.09305)" fill="none" stroke="#000000" stroke-width="1.00000000000" stroke-linecap="butt" stroke-linejoin="miter" stroke-miterlimit="2.00000000000" d="M45.9787 0C47.9195 9.12842 49.8902 19.9384 50.8457 29.8275C51.5723 37.3544 51.3334 39.2962 50.8457 46.8432C47.7404 94.5672 59.2561 111.323 36.9115 153.532C27.4859 171.338 11.3222 165.182 3.07111 183.559C-0.0242796 190.456 -1.91536 194.91 3.07111 200.575C22.2606 222.405 47.8996 187.383 67.7659 208.582C100.84 243.885 91.4143 398.518 86.6568 455.84"/>
   <path id="shape99" transform="translate(7.79216, 190.758)" fill="#000000" stroke="#000000" stroke-width="1.00000000000" stroke-linecap="butt" stroke-linejoin="miter" stroke-miterlimit="2.00000000000" d="M3.49909 9.82429L5.48365 0L0 0.55672Z"/>
   <text id="shape056" fill="#000000" font-family="Verdana" font-size="10.39999961853pt" x="0.00000000000pt" y="7.35937600000pt" transform="translate(20.0809, 190.351)"><tspan x="0"  y="9.19922">&quot;Autentica&quot;</tspan></text>
   <text id="shape057" fill="#000000" font-family="Verdana" font-size="10.39999961853pt" x="0.00000000000pt" y="7.14062400000pt" transform="translate(41.5103, 13.8618)"><tspan x="0"  y="8.92578">1</tspan></text>
   <text id="shape058" fill="#000000" font-family="Verdana" font-size="10.39999961853pt" x="0.00000000000pt" y="7.59375200000pt" transform="translate(64.6272, 438.427)"><tspan x="0"  y="9.49219">0..*</tspan></text>
  </g>
  <g id="link_Ap_Radius" transform="translate(334.6, 986.835)" fill="none">
   <path id="Ap-Radius" transform="translate(2.98843, 3.17466)" fill="none" stroke="#000000" stroke-width="1.00000000000" stroke-linecap="butt" stroke-linejoin="miter" stroke-miterlimit="2.00000000000" d="M41.9442 0C34.4692 14.3138 23.5864 33.1557 11.4045 47.9593C8.00672 52.0875 4.59898 51.0679 2.41043 55.9558C-0.687525 62.8428 -0.917373 66.1614 2.41043 72.9484C16.9108 102.516 47.4905 124.616 72.4041 138.63"/>
   <path id="shape100" transform="translate(6.66175, 63.1394)" fill="#000000" stroke="#000000" stroke-width="1.00000000000" stroke-linecap="butt" stroke-linejoin="miter" stroke-miterlimit="2.00000000000" d="M4.41994 8.95881L5.27327 0L0 1.19421Z"/>
   <text id="shape059" fill="#000000" font-family="Verdana" font-size="10.39999961853pt" x="0.00000000000pt" y="7.35937600000pt" transform="translate(19.4005, 63.0223)"><tspan x="0"  y="9.19922">&quot;Autentica&quot;</tspan></text>
   <text id="shape060" fill="#000000" font-family="Verdana" font-size="10.39999961853pt" x="0.00000000000pt" y="7.14062400000pt" transform="translate(33.2945, 14.0126)"><tspan x="0"  y="8.92578">1</tspan></text>
   <text id="shape061" fill="#000000" font-family="Verdana" font-size="10.39999961853pt" x="0.00000000000pt" y="7.59375200000pt" transform="translate(44.8704, 125.41)"><tspan x="0"  y="9.49219">0..*</tspan></text>
  </g>
  <g id="link_Nodo_Manga" transform="translate(96.0581, 287.479)" fill="none">
   <path id="Nodo-Manga" transform="translate(25.9419, 3)" fill="none" stroke="#000000" stroke-width="1.00000000000" stroke-linecap="butt" stroke-linejoin="miter" stroke-miterlimit="2.00000000000" d="M0 0C0 21.53 0 54.63 0 76.23"/>
   <path id="shape101" transform="translate(28.003, 37.2413)" fill="#000000" stroke="#000000" stroke-width="1.00000000000" stroke-linecap="butt" stroke-linejoin="miter" stroke-miterlimit="2.00000000000" d="M2.76388 9.35015L5.52777 0L0 0Z"/>
   <text id="shape062" fill="#000000" font-family="Verdana" font-size="10.39999961853pt" x="0.00000000000pt" y="7.23437600000pt" transform="translate(39.9419, 36.7439)"><tspan x="0"  y="9.04297">&quot;Conecta&quot;</tspan></text>
   <text id="shape063" fill="#000000" font-family="Verdana" font-size="10.39999961853pt" x="0.00000000000pt" y="7.14062400000pt" transform="translate(16.9529, 13.7892)"><tspan x="0"  y="8.92578">1</tspan></text>
   <text id="shape064" fill="#000000" font-family="Verdana" font-size="10.39999961853pt" x="0.00000000000pt" y="7.59375200000pt" transform="translate(0, 59.1367)"><tspan x="0"  y="9.49219">0..*</tspan></text>
  </g>
  <g id="link_Zona_Nodo" transform="translate(120.405, 166.383)" fill="none">
   <path id="Zona-Nodo" transform="translate(20.9749, 3.20616)" fill="none" stroke="#000000" stroke-width="1.00000000000" stroke-linecap="butt" stroke-linejoin="miter" stroke-miterlimit="2.00000000000" d="M68.5302 0C46.4256 24.5213 18.3805 55.6223 0 76.0102"/>
   <path id="shape102" transform="translate(64.2468, 36.4103)" fill="#000000" stroke="#000000" stroke-width="1.00000000000" stroke-linecap="butt" stroke-linejoin="miter" stroke-miterlimit="2.00000000000" d="M0 8.62207L7.75878 3.90712L3.64807 0Z"/>
   <text id="shape065" fill="#000000" font-family="Verdana" font-size="10.39999961853pt" x="0.00000000000pt" y="7.35937600000pt" transform="translate(76.5949, 36.6838)"><tspan x="0"  y="9.19922">&quot;Contiene&quot;</tspan></text>
   <text id="shape066" fill="#000000" font-family="Verdana" font-size="10.39999961853pt" x="0.00000000000pt" y="7.14062400000pt" transform="translate(75.3463, 14.0073)"><tspan x="0"  y="8.92578">1</tspan></text>
   <text id="shape067" fill="#000000" font-family="Verdana" font-size="10.39999961853pt" x="0.00000000000pt" y="7.59375200000pt" transform="translate(0, 59.2455)"><tspan x="0"  y="9.49219">0..*</tspan></text>
  </g>
  <g id="link_Contrato_Radius" transform="translate(483.03, 1130.23)" fill="none">
   <path id="Contrato-Radius" transform="translate(3, 17.352)" fill="none" stroke="#000000" stroke-width="1.00000000000" stroke-linecap="butt" stroke-linejoin="miter" stroke-miterlimit="2.00000000000" d="M542.9 0C398.56 0 104.62 0 0 0"/>
   <path id="shape103" transform="translate(243.37, 2.97949)" fill="#000000" stroke="#000000" stroke-width="1.00000000000" stroke-linecap="butt" stroke-linejoin="miter" stroke-miterlimit="2.00000000000" d="M0 2.76388L9.35015 5.52777L9.35015 0Z"/>
   <text id="shape068" fill="#000000" font-family="Verdana" font-size="10.39999961853pt" x="0.00000000000pt" y="7.59375200000pt" transform="translate(257.37, 0.926703)"><tspan x="0"  y="9.49219">Guarda</tspan></text>
   <text id="shape069" fill="#000000" font-family="Verdana" font-size="10.39999961853pt" x="0.00000000000pt" y="7.14062400000pt" transform="translate(529.978, 21.1903)"><tspan x="0"  y="8.92578">1</tspan></text>
   <text id="shape070" fill="#000000" font-family="Verdana" font-size="10.39999961853pt" x="0.00000000000pt" y="7.25000000000pt" transform="translate(10.7234, 4.21809)"><tspan x="0"  y="9.0625">0..1</tspan></text>
  </g>
 </g>
</svg>
